<svg width="16" height="16" viewBox="0 0 16 16" fill="none" xmlns="http://www.w3.org/2000/svg">
<path fill-rule="evenodd" clip-rule="evenodd" d="M14.91 9C14.91 8.71 15 8.43 15 8.14C15 7.85 14.91 7.58 14.91 7.29L12.76 7C12.6571 6.49777 12.4676 6.01728 12.2 5.58L13.51 3.78C13.1498 3.32641 12.7406 2.91391 12.29 2.55L10.52 3.84C10.1096 3.53362 9.62767 3.33739 9.12 3.27L8.84 1.09C8.56 1.09 8.28 1 8 1C7.72 1 7.44 1.09 7.07 1.09L6.79 3.27C6.3148 3.35506 5.86615 3.55028 5.48 3.84L3.71 2.51C3.25936 2.87391 2.85022 3.28641 2.49 3.74L3.8 5.54C3.51884 5.93364 3.32766 6.38427 3.24 6.86L1.09 7.15C1.09 7.43 1 7.72 1 8C1 8.28 1.09 8.57 1.09 8.85L3.24 9.14C3.32766 9.61573 3.51884 10.0664 3.8 10.46L2.49 12.26C2.85022 12.7136 3.25936 13.1261 3.71 13.49L5.48 12.16C5.86615 12.4497 6.3148 12.6449 6.79 12.73L7.07 14.91C7.35 14.91 7.63 15 8 15C8.37 15 8.56 14.91 8.84 14.91L9.12 12.73C9.61769 12.6275 10.0923 12.4343 10.52 12.16L12.29 13.49C12.7406 13.1261 13.1498 12.7136 13.51 12.26L12.2 10.46C12.4891 10.0191 12.6801 9.52116 12.76 9H14.91ZM8 10C7.60444 10 7.21776 9.8827 6.88886 9.66294C6.55996 9.44318 6.30362 9.13082 6.15224 8.76537C6.00087 8.39991 5.96126 7.99778 6.03843 7.60982C6.1156 7.22186 6.30608 6.86549 6.58579 6.58579C6.86549 6.30608 7.22186 6.1156 7.60982 6.03843C7.99778 5.96126 8.39991 6.00087 8.76537 6.15224C9.13082 6.30362 9.44318 6.55996 9.66294 6.88886C9.8827 7.21776 10 7.60444 10 8C10 8.53043 9.78929 9.03914 9.41421 9.41421C9.03914 9.78929 8.53043 10 8 10Z" fill="white"/>
</svg>
