<svg width="16" height="16" viewBox="0 0 16 16" fill="none" xmlns="http://www.w3.org/2000/svg">
<path fill-rule="evenodd" clip-rule="evenodd" d="M6.5 6C5.30653 6 4.16193 6.47411 3.31802 7.31802C2.47411 8.16193 2 9.30653 2 10.5C2 11.6935 2.47411 12.8381 3.31802 13.682C4.16193 14.5259 5.30653 15 6.5 15C7.69347 15 8.83807 14.5259 9.68198 13.682C10.5259 12.8381 11 11.6935 11 10.5C11 9.30653 10.5259 8.16193 9.68198 7.31802C8.83807 6.47411 7.69347 6 6.5 6ZM6.5 14.16C5.77612 14.16 5.0685 13.9453 4.46661 13.5432C3.86473 13.141 3.39562 12.5694 3.1186 11.9006C2.84158 11.2318 2.7691 10.4959 2.91033 9.78597C3.05155 9.076 3.40013 8.42385 3.91199 7.91199C4.42385 7.40013 5.076 7.05155 5.78597 6.91033C6.49594 6.7691 7.23184 6.84158 7.90062 7.1186C8.5694 7.39562 9.14101 7.86473 9.54318 8.46661C9.94534 9.0685 10.16 9.77612 10.16 10.5C10.1627 10.9814 10.0698 11.4585 9.8868 11.9038C9.70381 12.349 9.43432 12.7535 9.09392 13.0939C8.75353 13.4343 8.349 13.7038 7.90375 13.8868C7.4585 14.0698 6.98138 14.1627 6.5 14.16Z" fill="white"/>
<path fill-rule="evenodd" clip-rule="evenodd" d="M6.86001 7.62H6.14001V10.8L8.00001 12.6L8.54001 12.06L6.86001 10.5V7.62Z" fill="white"/>
<path fill-rule="evenodd" clip-rule="evenodd" d="M8 1L5 3L8 5V4C11.25 4 14 5.47 15 9C14.917 7.17018 14.1529 5.43751 12.8577 4.1423C11.5625 2.8471 9.82982 2.08297 8 2V1Z" fill="white"/>
</svg>
