<svg width="16" height="16" viewBox="0 0 16 16" fill="none" xmlns="http://www.w3.org/2000/svg">
<path d="M10.3402 15.5C10.1182 15.4974 9.90609 15.4081 9.74911 15.2511C9.59214 15.0941 9.50281 14.882 9.50021 14.66V11.71C9.49323 11.553 9.53853 11.3981 9.62901 11.2696C9.71949 11.1412 9.85005 11.0463 10.0002 11V9.75C10.0002 9.35218 10.1582 8.97064 10.4396 8.68934C10.7209 8.40804 11.1024 8.25 11.5002 8.25H13.5002C13.898 8.25 14.2796 8.40804 14.5609 8.68934C14.8422 8.97064 15.0002 9.35218 15.0002 9.75V11C15.1453 11.0449 15.2722 11.1352 15.3622 11.2576C15.4522 11.38 15.5006 11.5281 15.5002 11.68V14.63C15.4976 14.852 15.4083 15.0641 15.2513 15.2211C15.0943 15.3781 14.8822 15.4674 14.6602 15.47L10.3402 15.5ZM13.1302 11V10.12H11.8702V11H13.1302Z" fill="white"/>
<path d="M13.5001 8.74996C13.7653 8.74996 14.0197 8.85532 14.2072 9.04285C14.3947 9.23039 14.5001 9.48474 14.5001 9.74996V11.5H14.7901C14.8177 11.5 14.845 11.5054 14.8705 11.5159C14.8959 11.5265 14.9191 11.542 14.9386 11.5615C14.9581 11.581 14.9736 11.6041 14.9841 11.6296C14.9947 11.6551 15.0001 11.6824 15.0001 11.71V14.65C15.0014 14.6954 14.9936 14.7407 14.9771 14.7831C14.9607 14.8256 14.9358 14.8642 14.9041 14.8969C14.8724 14.9295 14.8345 14.9554 14.7926 14.9732C14.7506 14.9909 14.7056 15 14.6601 15H10.3401C10.2946 15 10.2495 14.9909 10.2076 14.9732C10.1657 14.9554 10.1278 14.9295 10.0961 14.8969C10.0644 14.8642 10.0395 14.8256 10.023 14.7831C10.0066 14.7407 9.99875 14.6954 10.0001 14.65V11.71C10.0001 11.6824 10.0055 11.6551 10.0161 11.6296C10.0266 11.6041 10.0421 11.581 10.0616 11.5615C10.0811 11.542 10.1043 11.5265 10.1297 11.5159C10.1552 11.5054 10.1825 11.5 10.2101 11.5H10.5001V9.74996C10.5001 9.48474 10.6054 9.23039 10.793 9.04285C10.9805 8.85532 11.2349 8.74996 11.5001 8.74996H13.5001ZM11.3701 11.5H13.6301V9.74996C13.6316 9.73251 13.6293 9.71493 13.6233 9.69846C13.6173 9.68199 13.6078 9.66704 13.5954 9.65465C13.583 9.64226 13.5681 9.63273 13.5516 9.62674C13.5351 9.62075 13.5175 9.61843 13.5001 9.61996H11.5001C11.4826 9.61843 11.4651 9.62075 11.4486 9.62674C11.4321 9.63273 11.4172 9.64226 11.4048 9.65465C11.3924 9.66704 11.3829 9.68199 11.3769 9.69846C11.3709 9.71493 11.3686 9.73251 11.3701 9.74996V11.5ZM13.5001 7.74996H11.5001C10.9697 7.74996 10.461 7.96067 10.0859 8.33575C9.71081 8.71082 9.50009 9.21953 9.50009 9.74996V10.75C9.34308 10.8647 9.21577 11.0154 9.1288 11.1893C9.04182 11.3633 8.99769 11.5555 9.00009 11.75V14.69C9.00793 15.0401 9.15257 15.3733 9.40302 15.6181C9.65347 15.863 9.98984 16 10.3401 16H14.6601C14.8369 16 15.012 15.965 15.1752 15.897C15.3384 15.829 15.4866 15.7294 15.6112 15.604C15.7357 15.4785 15.8342 15.3296 15.901 15.1658C15.9677 15.0021 16.0014 14.8268 16.0001 14.65V11.71C16.0025 11.5155 15.9584 11.3233 15.8714 11.1493C15.7844 10.9754 15.6571 10.8247 15.5001 10.71V9.70996C15.5001 9.17953 15.2894 8.67082 14.9143 8.29575C14.5392 7.92068 14.0305 7.70996 13.5001 7.70996V7.74996Z" fill="black"/>
</svg>
