<svg width="16" height="16" viewBox="0 0 16 16" fill="none" xmlns="http://www.w3.org/2000/svg">
<path d="M1.29004 8.81996L3.42004 6.68996L6.21004 9.47996L12.61 3.07996L14.71 5.17996L6.18004 13.71L1.29004 8.81996Z" fill="white"/>
<path d="M12.6101 3.79L14.0001 5.18L6.18009 13L4.79009 11.61L2.00009 8.81999L3.42009 7.4L6.21009 10.18L12.6101 3.79ZM12.6101 2.37L11.9001 3.08L6.21009 8.77L4.13009 6.69L3.42009 6L2.71009 6.71L1.29009 8.10999L0.590088 8.81999L1.29009 9.52999L4.08009 12.31L5.47009 13.71L6.18009 14.41L6.89009 13.71L14.7101 5.89L15.4101 5.18L14.7101 4.47L13.3101 3.08L12.6101 2.37Z" fill="black"/>
</svg>
