<svg width="16" height="16" viewBox="0 0 16 16" fill="none" xmlns="http://www.w3.org/2000/svg">
<path d="M6.5 15.5011V12.5046H10.5V15.5011H6.5ZM6.5 11.5058V9.83777V9.51815C6.5 8.51933 6.5 7.52051 8.01 7.03109C9.22 6.80136 9.22 6.32193 9.22 6.03227V5.88244C9.22 4.96353 9.12 4.63392 8.45 4.59397H8.15C6.85 4.59397 6.83 5.12334 6.8 5.9224V6.53168H2.53V6.05224C2.45201 5.33849 2.51993 4.61635 2.72964 3.9296C2.93935 3.24284 3.28648 2.60576 3.75 2.05697C4.36837 1.50578 5.09207 1.08534 5.87748 0.820981C6.66289 0.556626 7.49375 0.45383 8.32 0.518788C9.61337 0.474125 10.8737 0.932088 11.836 1.79639C12.7983 2.66069 13.3876 3.86399 13.48 5.15331V5.53286C13.5588 6.12318 13.4822 6.72383 13.2578 7.27556C13.0333 7.8273 12.6687 8.31106 12.2 8.67914C11.8496 8.97206 11.4404 9.18663 11 9.30839C10.8378 9.34252 10.6823 9.40327 10.54 9.48818V11.4858L6.5 11.5058Z" fill="white"/>
<path d="M8.31999 1.01766H8.37999C9.53482 0.980779 10.6594 1.38998 11.5199 2.16015C12.3804 2.93032 12.9105 4.00218 13 5.15277C13 6.21152 13.22 7.15041 11.91 8.29905C11.14 8.97824 10.08 8.7585 10.03 9.45768V11.0058H6.99999V9.83723C6.99999 8.71855 6.83999 7.92948 8.15999 7.49999C9.47999 7.26028 9.71999 6.63102 9.71999 6.01175C9.71999 5.39248 9.84999 4.14396 8.47999 4.06406H8.14999C6.27999 4.08403 6.32999 5.20271 6.29999 6.01175H2.99999C2.92999 4.56347 2.99999 1.01766 8.30999 1.01766H8.31999ZM9.99999 13.0035V15.0011H6.99999V13.0035H9.99999ZM8.31999 0.0188394C7.42104 -0.049343 6.51767 0.0679946 5.66608 0.36355C4.81449 0.659106 4.03291 1.12656 3.36999 1.73681C2.85267 2.32466 2.46367 3.01374 2.22779 3.76009C1.99191 4.50645 1.91433 5.29371 1.99999 6.07168L2.04999 7.0705H6.90999C6.56615 7.37252 6.30295 7.75524 6.14409 8.18418C5.98523 8.61311 5.93571 9.07478 5.99999 9.5276V12.0047V15.9999H11V12.0047V9.81725H11.1C11.6296 9.67962 12.1239 9.43108 12.55 9.08811C13.0771 8.66749 13.4873 8.11871 13.7412 7.49435C13.9951 6.86999 14.0842 6.19096 14 5.52233C14 5.40247 14 5.27263 14 5.15277C13.91 3.73892 13.2756 2.41474 12.2298 1.4577C11.184 0.500652 9.80796 -0.0149829 8.38999 0.0188394H8.31999ZM7.25999 6.80082V6.07168V5.93185C7.25999 5.15277 7.25999 5.08285 8.10999 5.08285H8.37999C8.45565 5.06536 8.53432 5.06536 8.60999 5.08285C8.67637 5.31984 8.70007 5.56672 8.67999 5.81199V6.01175C8.67999 6.18155 8.67999 6.36134 7.94999 6.49119H7.91999H7.85999C7.65244 6.55503 7.45152 6.63865 7.25999 6.74089V6.80082Z" fill="black"/>
</svg>
