<svg width="16" height="16" viewBox="0 0 16 16" fill="none" xmlns="http://www.w3.org/2000/svg">
<path d="M0.929932 11.5399L4.45993 7.99993L0.929932 4.45993L4.45993 0.929932L7.99993 4.45993L11.5399 0.929932L15.0699 4.45993L11.5399 7.99993L15.0699 11.5399L11.5399 15.0699L7.99993 11.5399L4.45993 15.0699L0.929932 11.5399Z" fill="white"/>
<path d="M11.54 1.63997L14.36 4.45997L10.83 7.99997L14.36 11.54L11.54 14.36L7.99997 10.83L4.45997 14.36L1.63997 11.54L5.16997 7.99997L1.63997 4.45997L4.45997 1.63997L7.99997 5.16997L11.54 1.63997ZM11.54 0.219971L10.83 0.929971L7.99997 3.75997L5.16997 0.929971L4.45997 0.219971L3.75997 0.929971L0.929971 3.75997L0.219971 4.45997L0.929971 5.16997L3.75997 7.99997L0.929971 10.83L0.219971 11.54L0.929971 12.24L3.75997 15.07L4.45997 15.78L5.16997 15.07L7.99997 12.24L10.83 15.07L11.54 15.78L12.24 15.07L15.07 12.24L15.78 11.54L15.07 10.83L12.24 7.99997L15.07 5.16997L15.78 4.45997L15.07 3.75997L12.24 0.929971L11.54 0.219971Z" fill="black"/>
</svg>
