<svg width="16" height="16" viewBox="0 0 16 16" fill="none" xmlns="http://www.w3.org/2000/svg">
<path d="M4.46993 11.7099L7.62993 8.49992L6.42993 7.28992L3.25993 10.5199L1.29993 8.51992L6.42993 3.28992L9.58993 6.49992L12.7399 3.28992L14.6999 5.28992L6.42993 13.7099L4.46993 11.7099Z" fill="white"/>
<path d="M12.74 3.99995L14 5.28995L6.42998 12.9999L5.16998 11.7099L8.32998 8.49995L6.42998 6.56995L3.25998 9.80995L1.99998 8.51995L6.42998 3.99995L7.68998 5.28995L9.58998 7.20995L12.74 3.99995ZM12.74 2.56995L12 3.29995L9.58998 5.78995L8.40998 4.58995L7.14998 3.29995L6.42998 2.56995L5.71998 3.29995L1.28998 7.81995L0.599976 8.51995L1.28998 9.21995L2.54998 10.5099L3.25998 11.2299L3.99998 10.5099L6.42998 7.99995L6.91998 8.49995L4.45998 10.9999L3.76998 11.6999L4.45998 12.3999L5.71998 13.6999L6.42998 14.4299L7.14998 13.6999L14.71 5.99995L15.4 5.29995L14.71 4.59995L13.45 3.29995L12.74 2.56995Z" fill="black"/>
</svg>
