<svg width="16" height="16" viewBox="0 0 16 16" fill="none" xmlns="http://www.w3.org/2000/svg">
<path fill-rule="evenodd" clip-rule="evenodd" d="M6.43 8.42998L1 4.84998V8.42998L6.43 12V8.42998Z" fill="white"/>
<path opacity="0.5" d="M12 4.84998L7.17004 8.42998V12L12 8.42998V4.84998Z" fill="white"/>
<path fill-rule="evenodd" clip-rule="evenodd" d="M8.54003 1.93L6.56003 1L1.28003 4L3.28003 5.27L8.54003 1.93Z" fill="white"/>
<path fill-rule="evenodd" clip-rule="evenodd" d="M4.38 5.85001L6.8 7.43001L11.64 3.91001L9.42 2.39001L4.38 5.85001Z" fill="white"/>
<path d="M10.21 12H14.79C14.8176 12 14.8449 12.0054 14.8704 12.016C14.8958 12.0265 14.919 12.042 14.9385 12.0615C14.958 12.081 14.9735 12.1042 14.984 12.1296C14.9946 12.1551 15 12.1824 15 12.21V14.65C15 14.7402 14.9642 14.8267 14.9004 14.8904C14.8367 14.9542 14.7502 14.99 14.66 14.99H10.34C10.2498 14.99 10.1633 14.9542 10.0996 14.8904C10.0358 14.8267 10 14.7402 10 14.65V12.21C10 12.1824 10.0054 12.1551 10.016 12.1296C10.0265 12.1042 10.042 12.081 10.0615 12.0615C10.081 12.042 10.1042 12.0265 10.1296 12.016C10.1551 12.0054 10.1824 12 10.21 12Z" fill="white"/>
<path d="M13 9.75C13.0663 9.75 13.1299 9.77634 13.1768 9.82322C13.2237 9.87011 13.25 9.9337 13.25 10V12.25H11.75V10C11.75 9.9337 11.7763 9.87011 11.8232 9.82322C11.8701 9.77634 11.9337 9.75 12 9.75H13ZM13 9H12C11.7348 9 11.4804 9.10536 11.2929 9.29289C11.1054 9.48043 11 9.73478 11 10V13H14V10C14 9.73478 13.8946 9.48043 13.7071 9.29289C13.5196 9.10536 13.2652 9 13 9Z" fill="white"/>
</svg>
