<svg width="16" height="16" viewBox="0 0 16 16" fill="none" xmlns="http://www.w3.org/2000/svg">
<path d="M2.5 5.75C3.74264 5.75 4.75 4.74264 4.75 3.5C4.75 2.25736 3.74264 1.25 2.5 1.25C1.25736 1.25 0.25 2.25736 0.25 3.5C0.25 4.74264 1.25736 5.75 2.5 5.75Z" fill="white"/>
<path d="M13.5 5.75C14.7426 5.75 15.75 4.74264 15.75 3.5C15.75 2.25736 14.7426 1.25 13.5 1.25C12.2574 1.25 11.25 2.25736 11.25 3.5C11.25 4.74264 12.2574 5.75 13.5 5.75Z" fill="white"/>
<path d="M13.5 13.75C14.7426 13.75 15.75 12.7426 15.75 11.5C15.75 10.2574 14.7426 9.25 13.5 9.25C12.2574 9.25 11.25 10.2574 11.25 11.5C11.25 12.7426 12.2574 13.75 13.5 13.75Z" fill="white"/>
<path opacity="0.5" d="M13.5 3H2.5V4H4.5C6.22 4 7 5.81 7 7.5C7 9.67 8.1 12 10.5 12H13.5V11H10.5C8.78 11 8 9.19 8 7.5C8.03519 6.22509 7.60508 4.98096 6.79 4H13.5V3Z" fill="white"/>
</svg>
