<svg width="20" height="20" viewBox="0 0 20 20" fill="none" xmlns="http://www.w3.org/2000/svg">
<path d="M8 14L7 11H1V14H8Z" fill="white" fill-opacity="0.5"/>
<path d="M16 4V1H2V4H16Z" fill="white"/>
<path d="M9 9V6H0V9H9Z" fill="white" fill-opacity="0.5"/>
<path fill-rule="evenodd" clip-rule="evenodd" d="M12.2399 15.8798L8.87991 19.2398C8.60026 19.1968 8.34691 19.0505 8.16991 18.8298C7.73991 18.4198 7.75991 18.1198 7.75991 18.1198L11.1199 14.7598L12.2399 15.8798Z" fill="white"/>
<path d="M15.0001 8.58002C15.6772 8.57867 16.3391 8.78073 16.9 9.16002C17.4615 9.53492 17.8998 10.0671 18.1601 10.69C18.4259 11.3217 18.4922 12.0196 18.3501 12.69C18.2211 13.3529 17.8971 13.9621 17.4196 14.4395C16.9421 14.917 16.3329 15.241 15.6701 15.37C14.9996 15.5121 14.3018 15.4458 13.6701 15.18C13.0472 14.9197 12.515 14.4814 12.1401 13.92C11.7934 13.4029 11.594 12.8013 11.5632 12.1795C11.5325 11.5578 11.6715 10.9394 11.9654 10.3906C12.2593 9.84183 12.697 9.38339 13.2316 9.06443C13.7662 8.74547 14.3775 8.57802 15.0001 8.58002ZM15.0001 7.50002C13.9562 7.49814 12.9441 7.85839 12.1362 8.51934C11.3283 9.18029 10.7747 10.101 10.5697 11.1245C10.3648 12.148 10.5212 13.2109 11.0123 14.132C11.5034 15.053 12.2988 15.7752 13.2629 16.1754C14.227 16.5756 15.3 16.629 16.299 16.3264C17.298 16.0239 18.1612 15.3843 18.7413 14.5165C19.3214 13.6487 19.5826 12.6066 19.4802 11.5678C19.3779 10.529 18.9184 9.55789 18.18 8.82002C17.7639 8.40025 17.2685 8.06739 16.7226 7.84078C16.1766 7.61418 15.5911 7.49834 15.0001 7.50002Z" fill="white"/>
</svg>
