<svg width="16" height="16" viewBox="0 0 16 16" fill="none" xmlns="http://www.w3.org/2000/svg">
<path d="M11.5 4.63986C12.7206 4.63986 13.71 3.68175 13.71 2.49986C13.71 1.31797 12.7206 0.359863 11.5 0.359863C10.2795 0.359863 9.29004 1.31797 9.29004 2.49986C9.29004 3.68175 10.2795 4.63986 11.5 4.63986Z" fill="white"/>
<path d="M3.50004 10.1399C4.72059 10.1399 5.71004 9.18175 5.71004 7.99986C5.71004 6.81797 4.72059 5.85986 3.50004 5.85986C2.27949 5.85986 1.29004 6.81797 1.29004 7.99986C1.29004 9.18175 2.27949 10.1399 3.50004 10.1399Z" fill="white"/>
<path d="M11.5 15.6399C12.7206 15.6399 13.71 14.6818 13.71 13.4999C13.71 12.318 12.7206 11.3599 11.5 11.3599C10.2795 11.3599 9.29004 12.318 9.29004 13.4999C9.29004 14.6818 10.2795 15.6399 11.5 15.6399Z" fill="white"/>
<path opacity="0.5" d="M3.5 7.5L11.5 2.5" stroke="white" stroke-width="1.5" stroke-miterlimit="10"/>
<path opacity="0.5" d="M3.5 8.5L11.5 13.5" stroke="white" stroke-width="1.5" stroke-miterlimit="10"/>
</svg>
