<svg width="16" height="16" viewBox="0 0 16 16" fill="none" xmlns="http://www.w3.org/2000/svg">
<g clip-path="url(#clip0_875:47122)">
<path d="M14.5 1L8 7.5V14.5L6 12.5V7.5L-0.5 1H14.5Z" fill="white"/>
<path fill-rule="evenodd" clip-rule="evenodd" d="M15.9516 12.8992C16.0163 12.6172 16.0163 12.3243 15.9516 12.0423L14.8765 11.8807C14.8196 11.6405 14.7241 11.4112 14.5936 11.2017L15.2484 10.3287C15.0684 10.1029 14.8622 9.89937 14.634 9.72244L13.761 10.3691C13.5494 10.2446 13.3207 10.152 13.0821 10.0943L12.9285 9.0192C12.7867 8.99507 12.6437 8.97888 12.5001 8.9707C12.3537 8.97842 12.208 8.99461 12.0636 9.0192L11.9019 10.0943C11.6681 10.155 11.4447 10.2504 11.2391 10.3772L10.358 9.72244C10.1322 9.90238 9.92867 10.1086 9.75175 10.3368L10.3984 11.2179C10.2726 11.423 10.1799 11.6467 10.1236 11.8807L9.0485 12.0342C8.98383 12.3217 8.98383 12.6198 9.0485 12.9073L10.1236 13.0608C10.1799 13.2948 10.2726 13.5185 10.3984 13.7236L9.75175 14.6047C9.92867 14.8329 10.1322 15.0391 10.358 15.2191L11.2391 14.5643C11.4439 14.6927 11.6675 14.7882 11.9019 14.8472L12.0636 15.9223C12.208 15.9469 12.3537 15.9631 12.5001 15.9708C12.6437 15.9626 12.7867 15.9464 12.9285 15.9223L13.0821 14.8472C13.3207 14.7895 13.5494 14.6969 13.761 14.5724L14.634 15.2191C14.8622 15.0421 15.0684 14.8386 15.2484 14.6128L14.5936 13.7398C14.7241 13.5303 14.8196 13.301 14.8765 13.0608L15.9516 12.8992ZM12.5001 13.9904C12.1995 13.9904 11.9057 13.9013 11.6558 13.7343C11.4059 13.5673 11.2111 13.33 11.0961 13.0523C10.9811 12.7746 10.951 12.4691 11.0096 12.1743C11.0682 11.8795 11.213 11.6087 11.4255 11.3962C11.638 11.1837 11.9088 11.0389 12.2036 10.9803C12.4984 10.9217 12.8039 10.9517 13.0816 11.0668C13.3593 11.1818 13.5966 11.3766 13.7636 11.6265C13.9306 11.8764 14.0197 12.1702 14.0197 12.4707C14.0229 12.6723 13.986 12.8726 13.9111 13.0598C13.8361 13.2469 13.7247 13.4173 13.5833 13.561C13.4418 13.7047 13.2732 13.8188 13.0873 13.8967C12.9013 13.9746 12.7017 14.0147 12.5001 14.0147V13.9904Z" fill="white"/>
</g>
<defs>
<clipPath id="clip0_875:47122">
<rect width="16" height="16" fill="white"/>
</clipPath>
</defs>
</svg>
