<svg width="16" height="16" viewBox="0 0 16 16" fill="none" xmlns="http://www.w3.org/2000/svg">
<path d="M9.72039 6.0699C9.88147 4.96527 10.2993 3.9138 10.9404 2.99991C10.9404 2.99991 10.9404 3.05991 10.9404 3.08991C10.9404 3.36573 11.05 3.63026 11.245 3.8253C11.44 4.02033 11.7046 4.12991 11.9804 4.12991C12.2562 4.12991 12.5207 4.02033 12.7158 3.8253C12.9108 3.63026 13.0204 3.36573 13.0204 3.08991C13.0208 2.90249 12.9685 2.71873 12.8694 2.5596C12.7704 2.40047 12.6287 2.27237 12.4604 2.18991H12.3704C11.8729 2.00961 11.3279 2.00961 10.8304 2.18991C9.21039 2.63991 8.58039 4.99991 8.58039 4.99991L8.40039 5.1199H5.40039L5.15039 6.1199H8.27039L7.27039 11.4199C7.11385 12.0161 6.79099 12.5555 6.33948 12.9751C5.88797 13.3948 5.32643 13.6773 4.72039 13.7899C4.78189 13.655 4.81264 13.5081 4.81039 13.3599C4.81039 13.0735 4.69661 12.7988 4.49407 12.5962C4.29153 12.3937 4.01682 12.2799 3.73039 12.2799C3.44396 12.2799 3.16925 12.3937 2.96672 12.5962C2.76418 12.7988 2.65039 13.0735 2.65039 13.3599C2.6615 13.605 2.75729 13.8386 2.92141 14.021C3.08553 14.2033 3.30783 14.3231 3.55039 14.3599V14.3599C7.91039 15.1999 8.55039 11.4499 8.55039 11.4499L9.55039 7.05991H12.5504L12.8004 6.05991H9.64039L9.72039 6.0699Z" fill="white"/>
</svg>
