<svg width="12" height="12" viewBox="0 0 12 12" fill="none" xmlns="http://www.w3.org/2000/svg">
<path opacity="0.5" d="M6.79993 0C2.61993 3.13 1.70996 5.93 1.70996 8.09C1.76072 9.0941 2.19531 10.0403 2.92395 10.733C3.65259 11.4258 4.61956 11.8121 5.62494 11.8121C6.63032 11.8121 7.59729 11.4258 8.32593 10.733C9.05457 10.0403 9.48915 9.0941 9.53992 8.09C9.53992 5.93 5.47993 3.28 6.79993 0ZM5.61993 11.48C4.89497 11.4774 4.20059 11.1875 3.6889 10.6739C3.17721 10.1604 2.88995 9.46496 2.88995 8.74C2.95949 7.7486 3.22406 6.78069 3.66852 5.89178C4.11297 5.00288 4.72853 4.21047 5.47992 3.56C5.57992 6.33 8.35992 7.3 8.35992 9.13C8.30627 9.80421 7.988 10.4298 7.47461 10.8701C6.96122 11.3104 6.29445 11.5297 5.61993 11.48Z" fill="white"/>
<path d="M4.22989 10.31C4.22576 10.4674 4.25376 10.624 4.3121 10.7702C4.37045 10.9165 4.45791 11.0493 4.56925 11.1606C4.68058 11.272 4.81344 11.3595 4.95969 11.4178C5.10593 11.4762 5.2625 11.5041 5.41989 11.5C5.77633 11.4948 6.11674 11.3509 6.36881 11.0989C6.62087 10.8468 6.76476 10.5064 6.76993 10.15C6.55241 9.08349 5.94205 8.13765 5.05991 7.5C5.09991 8.77 4.22989 9.43 4.22989 10.31Z" fill="white"/>
</svg>
