<svg width="12" height="12" viewBox="0 0 12 12" fill="none" xmlns="http://www.w3.org/2000/svg">
<path d="M6.00019 2.85C5.54456 2.85 5.17519 3.21937 5.17519 3.675C5.17519 4.13064 5.54456 4.5 6.00019 4.5C6.45583 4.5 6.8252 4.13064 6.8252 3.675C6.8252 3.21937 6.45583 2.85 6.00019 2.85Z" fill="white"/>
<path d="M6 8.625L6 6" stroke="white" stroke-width="1.5" stroke-miterlimit="10" stroke-linecap="round"/>
<path d="M6 10.5C3.525 10.5 1.5 8.475 1.5 6C1.5 3.525 3.525 1.5 6 1.5C8.475 1.5 10.5 3.525 10.5 6C10.5 8.475 8.475 10.5 6 10.5ZM6 11.625C9.075 11.625 11.625 9.075 11.625 6C11.625 2.925 9.075 0.375001 6 0.375001C2.925 0.375002 0.375 2.925 0.375 6C0.375001 9.075 2.925 11.625 6 11.625Z" fill="white"/>
</svg>
