<svg width="20" height="20" viewBox="0 0 20 20" fill="none" xmlns="http://www.w3.org/2000/svg">
<path fill-rule="evenodd" clip-rule="evenodd" d="M16.5 2.00003H15V5.00003H12V2.00003H8.00003V5.00003H5.00004V2.00003H3.50003C3.43446 1.99924 3.36946 2.01229 3.30918 2.03812C3.2489 2.06395 3.19471 2.1019 3.15006 2.14994C3.10202 2.19458 3.06383 2.24884 3.038 2.30912C3.01217 2.36939 2.99924 2.43446 3.00003 2.50003V18.5C2.99924 18.5656 3.01217 18.6307 3.038 18.691C3.06383 18.7512 3.10202 18.8055 3.15006 18.8501C3.19471 18.8982 3.2489 18.9361 3.30918 18.9619C3.36946 18.9878 3.43446 19.0008 3.50003 19H16.5C16.5656 19.0008 16.6306 18.9878 16.6909 18.9619C16.7512 18.9361 16.8054 18.8982 16.85 18.8501C16.898 18.8055 16.9362 18.7512 16.9621 18.691C16.9879 18.6307 17.0008 18.5656 17 18.5V2.50003C17.0008 2.43446 16.9879 2.36939 16.9621 2.30912C16.9362 2.24884 16.898 2.19458 16.85 2.14994C16.8054 2.1019 16.7512 2.06395 16.6909 2.03812C16.6306 2.01229 16.5656 1.99924 16.5 2.00003ZM15 17H5.00004V16H15V17ZM15 14H5.00004V13H15V14ZM15 11H5.00004V10H15V11ZM15 8.00003H5.00004V7.00003H15V8.00003Z" fill="white"/>
<path opacity="0.5" d="M7 0H6V4H7V0Z" fill="white"/>
<path opacity="0.5" d="M14 0H13V4H14V0Z" fill="white"/>
</svg>
