<svg width="16" height="16" viewBox="0 0 16 16" fill="none" xmlns="http://www.w3.org/2000/svg">
<g clip-path="url(#clip0_806:45452)">
<path fill-rule="evenodd" clip-rule="evenodd" d="M14.5703 15.25V16H3.24023V15.67C5.28637 15.493 7.30215 15.0596 9.24023 14.38C12.1202 13.44 11.6202 10.82 11.6202 9.91998C11.6202 8.44998 7.87024 6.51001 7.87024 6.51001L6.17023 9.03998L4.06024 7.87L9.13025 0L10.8602 1C10.0915 2.29442 9.39383 3.62973 8.77026 5C13.7103 7.62 13.8702 9.67 13.8702 11.12C13.8702 12.35 13.8702 12.36 13.8702 13.56C13.9402 14.94 14.5703 15.25 14.5703 15.25Z" fill="white"/>
<path opacity="0.5" fill-rule="evenodd" clip-rule="evenodd" d="M8.47043 13.5701L0.94043 10.8801L1.43043 9.56006L9.91043 12.5801L8.47043 13.5701Z" fill="white"/>
</g>
<defs>
<clipPath id="clip0_806:45452">
<rect width="16" height="16" fill="white"/>
</clipPath>
</defs>
</svg>
