<svg width="20" height="20" viewBox="0 0 20 20" fill="none" xmlns="http://www.w3.org/2000/svg">
<path fill-rule="evenodd" clip-rule="evenodd" d="M18.2133 19.0625V20H4.05078V19.5875C6.60845 19.3662 9.12818 18.8245 11.5508 17.975C15.1508 16.8 14.5258 13.525 14.5258 12.4C14.5258 10.5625 9.83829 8.13751 9.83829 8.13751L7.71327 11.3L5.07579 9.83749L11.4133 0L13.5758 1.25C12.6149 2.86802 11.7428 4.53716 10.9633 6.25C17.1383 9.525 17.3383 12.0875 17.3383 13.9C17.3383 15.4375 17.3383 15.45 17.3383 16.95C17.4258 18.675 18.2133 19.0625 18.2133 19.0625Z" fill="white"/>
<path opacity="0.5" fill-rule="evenodd" clip-rule="evenodd" d="M10.5883 16.9627L1.17578 13.6002L1.78828 11.9502L12.3883 15.7252L10.5883 16.9627Z" fill="white"/>
</svg>
