<svg width="16" height="16" viewBox="0 0 16 16" fill="none" xmlns="http://www.w3.org/2000/svg">
<path opacity="0.5" d="M11.5004 0.5C10.7514 0.503044 10.0184 0.716311 9.38465 1.11551C8.75094 1.51471 8.24207 2.0838 7.9159 2.75801C7.58974 3.43223 7.45933 4.18448 7.53968 4.92912C7.62004 5.67377 7.90788 6.38089 8.37037 6.97L9.17042 6.37C8.7842 5.89332 8.55342 5.30969 8.50917 4.69778C8.46491 4.08588 8.60924 3.4751 8.92286 2.94781C9.23648 2.42053 9.70426 2.00208 10.2631 1.74886C10.8219 1.49563 11.4449 1.41982 12.0481 1.53165C12.6513 1.64347 13.2058 1.93756 13.6367 2.37425C14.0676 2.81095 14.3542 3.36926 14.458 3.97392C14.5618 4.57859 14.4777 5.20053 14.2171 5.75592C13.9564 6.31131 13.5318 6.77344 13.0004 7.08V8.2C13.8558 7.84865 14.563 7.21177 15.0017 6.39774C15.4405 5.5837 15.5837 4.64279 15.4069 3.73511C15.23 2.82742 14.7441 2.00904 14.0319 1.41922C13.3196 0.829395 12.4251 0.504566 11.5004 0.5Z" fill="white"/>
<path d="M11 6C11 6.66304 10.7367 7.29892 10.2678 7.76776C9.79898 8.2366 9.16304 8.5 8.5 8.5C7.83696 8.5 7.20102 8.2366 6.73218 7.76776C6.26334 7.29892 6 6.66304 6 6V3H1.46002C1.07361 3.00262 0.703779 3.15729 0.430542 3.43053C0.157305 3.70376 0.0026198 4.0736 0 4.46001V14.54C0.0026198 14.9264 0.157305 15.2962 0.430542 15.5695C0.703779 15.8427 1.07361 15.9974 1.46002 16H10.54C10.9264 15.9974 11.2962 15.8427 11.5695 15.5695C11.8427 15.2962 11.9974 14.9264 12 14.54V4.46001C11.9979 4.15325 11.9006 3.85471 11.7214 3.6057C11.5423 3.35668 11.2902 3.16949 11 3.07001V6ZM10 13H2V12H10V13ZM10 11H2V10H10V11Z" fill="white"/>
</svg>
