<svg width="20" height="20" viewBox="0 0 20 20" fill="none" xmlns="http://www.w3.org/2000/svg">
<path opacity="0.5" d="M14.6605 0.589844C13.4007 0.589844 12.1926 1.0903 11.3018 1.98109C10.411 2.87189 9.91048 4.08007 9.91048 5.33984C9.89787 6.40535 10.2508 7.443 10.9105 8.27985L11.8505 7.55984C11.3363 6.93393 11.0538 6.14985 11.0505 5.33984C11.0462 4.71191 11.2076 4.09396 11.5184 3.54832C11.8292 3.00269 12.2784 2.54867 12.8208 2.23212C13.3631 1.91556 13.9793 1.74765 14.6072 1.74533C15.2351 1.74301 15.8526 1.90635 16.3972 2.21889C16.9419 2.53142 17.3945 2.98209 17.7093 3.52541C18.0241 4.06873 18.1901 4.68547 18.1905 5.31342C18.1908 5.94136 18.0255 6.55829 17.7112 7.10194C17.3969 7.6456 16.9449 8.09674 16.4005 8.40985V9.73985C17.4202 9.32516 18.2641 8.5692 18.7882 7.60121C19.3122 6.63322 19.4838 5.51328 19.2736 4.4328C19.0634 3.35232 18.4845 2.37837 17.6358 1.67743C16.7871 0.976486 15.7212 0.592052 14.6205 0.589844H14.6605Z" fill="white"/>
<path d="M13.83 7.46004C13.7864 8.20362 13.4603 8.90245 12.9185 9.41351C12.3766 9.92457 11.6598 10.2092 10.915 10.2092C10.1701 10.2092 9.45344 9.92457 8.91156 9.41351C8.36968 8.90245 8.04357 8.20362 8 7.46004V4.00003H2.71002C2.48677 3.99871 2.26541 4.04138 2.05865 4.12559C1.8519 4.20981 1.66379 4.33394 1.505 4.49087C1.34622 4.64781 1.21988 4.83447 1.13324 5.04022C1.04659 5.24597 1.00131 5.46678 1 5.69003V17.31C1.00131 17.5333 1.04659 17.7541 1.13324 17.9598C1.21988 18.1656 1.34622 18.3523 1.505 18.5092C1.66379 18.6661 1.8519 18.7902 2.05865 18.8745C2.26541 18.9587 2.48677 19.0013 2.71002 19H13.29C13.5132 19.0013 13.7346 18.9587 13.9413 18.8745C14.1481 18.7902 14.3362 18.6661 14.495 18.5092C14.6538 18.3523 14.7801 18.1656 14.8668 17.9598C14.9534 17.7541 14.9987 17.5333 15 17.31V5.69003C14.9998 5.33373 14.8864 4.9867 14.6761 4.6991C14.4658 4.41149 14.1695 4.19819 13.83 4.09003V7.46004ZM13 16H3V15H13V16ZM13 13H3V12H13V13Z" fill="white"/>
</svg>
