<svg width="20" height="20" viewBox="0 0 20 20" fill="none" xmlns="http://www.w3.org/2000/svg">
<g clip-path="url(#clip0_863:48823)">
<path d="M15 6L19 3L15 0V6Z" fill="white"/>
<path d="M15 13L19 10L15 7V13Z" fill="white"/>
<path d="M15 20L19 17L15 14V20Z" fill="white"/>
<path d="M8.5 3H16" stroke="white" stroke-width="2" stroke-miterlimit="10" stroke-linecap="round"/>
<path d="M8.5 10H16" stroke="white" stroke-width="2" stroke-miterlimit="10" stroke-linecap="round"/>
<path d="M8.5 17H16" stroke="white" stroke-width="2" stroke-miterlimit="10" stroke-linecap="round"/>
<path d="M3.71017 0.120163L1.12016 2.71017C1.08207 2.74825 1.05185 2.79346 1.03123 2.84322C1.01062 2.89298 1 2.94631 1 3.00017C1 3.05403 1.01062 3.10736 1.03123 3.15712C1.05185 3.20688 1.08207 3.25209 1.12016 3.29016L3.71017 5.88017C3.74825 5.91827 3.79346 5.94848 3.84322 5.9691C3.89298 5.98972 3.94631 6.00034 4.00017 6.00034C4.05403 6.00034 4.10736 5.98972 4.15712 5.9691C4.20688 5.94848 4.25209 5.91827 4.29016 5.88017L6.88017 3.29016C6.91675 3.25177 6.94711 3.20792 6.97017 3.16017C7.01033 3.05729 7.01033 2.94305 6.97017 2.84016C6.94711 2.79242 6.91675 2.74857 6.88017 2.71017L4.29016 0.120163C4.25209 0.0820651 4.20688 0.0518544 4.15712 0.0312347C4.10736 0.0106151 4.05403 0 4.00017 0C3.94631 0 3.89298 0.0106151 3.84322 0.0312347C3.79346 0.0518544 3.74825 0.0820651 3.71017 0.120163Z" fill="white"/>
<path d="M3.71017 7.12016L1.12016 9.71017C1.08207 9.74825 1.05185 9.79346 1.03123 9.84322C1.01062 9.89298 1 9.94631 1 10.0002C1 10.054 1.01062 10.1074 1.03123 10.1571C1.05185 10.2069 1.08207 10.2521 1.12016 10.2902L3.71017 12.8802C3.74825 12.9183 3.79346 12.9485 3.84322 12.9691C3.89298 12.9897 3.94631 13.0003 4.00017 13.0003C4.05403 13.0003 4.10736 12.9897 4.15712 12.9691C4.20688 12.9485 4.25209 12.9183 4.29016 12.8802L6.88017 10.2902C6.91675 10.2518 6.94711 10.2079 6.97017 10.1602C7.01033 10.0573 7.01033 9.94305 6.97017 9.84016C6.94711 9.79242 6.91675 9.74857 6.88017 9.71017L4.29016 7.12016C4.25209 7.08207 4.20688 7.05185 4.15712 7.03123C4.10736 7.01062 4.05403 7 4.00017 7C3.94631 7 3.89298 7.01062 3.84322 7.03123C3.79346 7.05185 3.74825 7.08207 3.71017 7.12016Z" fill="white"/>
<path d="M3.71017 14.1202L1.12016 16.7102C1.08207 16.7482 1.05185 16.7935 1.03123 16.8432C1.01062 16.893 1 16.9463 1 17.0002C1 17.054 1.01062 17.1074 1.03123 17.1571C1.05185 17.2069 1.08207 17.2521 1.12016 17.2902L3.71017 19.8802C3.74825 19.9183 3.79346 19.9485 3.84322 19.9691C3.89298 19.9897 3.94631 20.0003 4.00017 20.0003C4.05403 20.0003 4.10736 19.9897 4.15712 19.9691C4.20688 19.9485 4.25209 19.9183 4.29016 19.8802L6.88017 17.2902C6.91675 17.2518 6.94711 17.2079 6.97017 17.1602C7.01033 17.0573 7.01033 16.9431 6.97017 16.8402C6.94711 16.7924 6.91675 16.7486 6.88017 16.7102L4.29016 14.1202C4.25209 14.0821 4.20688 14.0519 4.15712 14.0312C4.10736 14.0106 4.05403 14 4.00017 14C3.94631 14 3.89298 14.0106 3.84322 14.0312C3.79346 14.0519 3.74825 14.0821 3.71017 14.1202Z" fill="white"/>
</g>
<defs>
<clipPath id="clip0_863:48823">
<rect width="20" height="20" fill="white"/>
</clipPath>
</defs>
</svg>
