<svg width="16" height="16" viewBox="0 0 16 16" fill="none" xmlns="http://www.w3.org/2000/svg">
<path d="M12 6L14.86 3.5L12 1V6Z" fill="white"/>
<path d="M7.5 3.5H12.5" stroke="white" stroke-miterlimit="10" stroke-linecap="round"/>
<path d="M12 16L14.86 13.5L12 11V16Z" fill="white"/>
<path d="M7.5 13.5H12.5" stroke="white" stroke-miterlimit="10" stroke-linecap="round"/>
<path d="M12 11L14.86 8.5L12 6V11Z" fill="white"/>
<path d="M7.5 8.5H12.5" stroke="white" stroke-miterlimit="10" stroke-linecap="round"/>
<path d="M3.31012 1.58012L1.58012 3.31012C1.53005 3.36068 1.50195 3.42896 1.50195 3.50012C1.50195 3.57128 1.53005 3.63957 1.58012 3.69012L3.31012 5.42012C3.36068 5.4702 3.42896 5.49829 3.50012 5.49829C3.57128 5.49829 3.63957 5.4702 3.69012 5.42012L5.42012 3.69012C5.45062 3.66863 5.47201 3.63655 5.48012 3.60013C5.49332 3.56844 5.50012 3.53445 5.50012 3.50012C5.50012 3.4658 5.49332 3.4318 5.48012 3.40012C5.47201 3.3637 5.45062 3.33161 5.42012 3.31012L3.69012 1.58012C3.63957 1.53005 3.57128 1.50195 3.50012 1.50195C3.42896 1.50195 3.36068 1.53005 3.31012 1.58012Z" fill="white"/>
<path d="M3.31012 6.58012L1.58012 8.31012C1.53005 8.36068 1.50195 8.42896 1.50195 8.50012C1.50195 8.57128 1.53005 8.63957 1.58012 8.69012L3.31012 10.4201C3.36068 10.4702 3.42896 10.4983 3.50012 10.4983C3.57128 10.4983 3.63957 10.4702 3.69012 10.4201L5.42012 8.69012C5.45062 8.66863 5.47201 8.63655 5.48012 8.60013C5.49332 8.56844 5.50012 8.53445 5.50012 8.50012C5.50012 8.4658 5.49332 8.4318 5.48012 8.40012C5.47201 8.3637 5.45062 8.33161 5.42012 8.31012L3.69012 6.58012C3.63957 6.53005 3.57128 6.50195 3.50012 6.50195C3.42896 6.50195 3.36068 6.53005 3.31012 6.58012Z" fill="white"/>
<path d="M3.31012 11.5801L1.58012 13.3101C1.53005 13.3607 1.50195 13.429 1.50195 13.5001C1.50195 13.5713 1.53005 13.6396 1.58012 13.6901L3.31012 15.4201C3.36068 15.4702 3.42896 15.4983 3.50012 15.4983C3.57128 15.4983 3.63957 15.4702 3.69012 15.4201L5.42012 13.6901C5.45062 13.6686 5.47201 13.6365 5.48012 13.6001C5.49332 13.5684 5.50012 13.5344 5.50012 13.5001C5.50012 13.4658 5.49332 13.4318 5.48012 13.4001C5.47201 13.3637 5.45062 13.3316 5.42012 13.3101L3.69012 11.5801C3.63957 11.53 3.57128 11.502 3.50012 11.502C3.42896 11.502 3.36068 11.53 3.31012 11.5801Z" fill="white"/>
</svg>
