<svg width="16" height="16" viewBox="0 0 16 16" fill="none" xmlns="http://www.w3.org/2000/svg">
<path fill-rule="evenodd" clip-rule="evenodd" d="M7.4998 2.7998C4.28495 2.7998 1.7998 5.38943 1.7998 8.5498C1.7998 11.7102 4.28495 14.2998 7.4998 14.2998C10.7251 14.2998 13.2998 11.6997 13.2998 8.5498C13.2998 5.39995 10.7251 2.7998 7.4998 2.7998ZM0.799805 8.5498C0.799805 4.85534 3.71465 1.7998 7.4998 1.7998C11.2745 1.7998 14.2998 4.84482 14.2998 8.5498C14.2998 12.2548 11.2745 15.2998 7.4998 15.2998C3.71465 15.2998 0.799805 12.2443 0.799805 8.5498Z" fill="white"/>
<path fill-rule="evenodd" clip-rule="evenodd" d="M6.42444 4.56614C6.04521 5.53527 5.7998 6.90818 5.7998 8.4498C5.7998 9.99143 6.04521 11.3643 6.42444 12.3335C6.61465 12.8196 6.82879 13.179 7.04103 13.4084C7.25273 13.6372 7.42513 13.6998 7.5498 13.6998C7.67448 13.6998 7.84688 13.6372 8.05858 13.4084C8.27082 13.179 8.48496 12.8196 8.67517 12.3335C9.0544 11.3643 9.2998 9.99143 9.2998 8.4498C9.2998 6.90818 9.0544 5.53527 8.67517 4.56614C8.48496 4.08003 8.27082 3.72063 8.05858 3.49122C7.84688 3.26238 7.67448 3.1998 7.5498 3.1998C7.42513 3.1998 7.25273 3.26238 7.04103 3.49122C6.82879 3.72063 6.61465 4.08003 6.42444 4.56614ZM6.30698 2.81212C6.63365 2.45902 7.05316 2.1998 7.5498 2.1998C8.04645 2.1998 8.46596 2.45902 8.79263 2.81212C9.11876 3.16464 9.38946 3.64731 9.60642 4.20174C10.0415 5.3137 10.2998 6.81579 10.2998 8.4498C10.2998 10.0838 10.0415 11.5859 9.60642 12.6979C9.38946 13.2523 9.11876 13.735 8.79263 14.0875C8.46596 14.4406 8.04645 14.6998 7.5498 14.6998C7.05316 14.6998 6.63365 14.4406 6.30698 14.0875C5.98085 13.735 5.71014 13.2523 5.49319 12.6979C5.05808 11.5859 4.7998 10.0838 4.7998 8.4498C4.7998 6.81579 5.05808 5.3137 5.49319 4.20174C5.71014 3.64731 5.98085 3.16464 6.30698 2.81212Z" fill="white"/>
<path fill-rule="evenodd" clip-rule="evenodd" d="M0.999817 8.49981C0.999817 8.22366 1.22367 7.99981 1.49982 7.99981H13.4998C13.776 7.99981 13.9998 8.22366 13.9998 8.49981C13.9998 8.77595 13.776 8.99981 13.4998 8.99981H1.49982C1.22367 8.99981 0.999817 8.77595 0.999817 8.49981Z" fill="white"/>
</svg>
