<svg width="16" height="16" viewBox="0 0 16 16" fill="none" xmlns="http://www.w3.org/2000/svg">
<path d="M4.14 10.6898L0.5 7.49982L4.14 4.31982V10.6898Z" fill="white"/>
<path d="M6.99965 7.5H2.63965" stroke="white" stroke-miterlimit="10" stroke-linecap="round"/>
<path d="M12 5L14.86 2.5L12 0V5Z" fill="white"/>
<path d="M6.5 2.5H13.5" stroke="white" stroke-miterlimit="10" stroke-linecap="round"/>
<path fill-rule="evenodd" clip-rule="evenodd" d="M9.59003 13.3102L6.90002 16.0002C6.67581 15.9643 6.4728 15.8467 6.33003 15.6702C5.99003 15.3402 6.00003 15.1002 6.00003 15.1002L8.69003 12.4102L9.59003 13.3102Z" fill="white"/>
<path d="M12 7.14999C12.5637 7.14999 13.1147 7.31715 13.5834 7.63031C14.0521 7.94347 14.4174 8.38859 14.6331 8.90936C14.8488 9.43013 14.9052 10.0032 14.7952 10.556C14.6853 11.1088 14.4138 11.6167 14.0153 12.0153C13.6167 12.4138 13.1089 12.6853 12.556 12.7952C12.0032 12.9052 11.4301 12.8488 10.9094 12.6331C10.3886 12.4173 9.94348 12.0521 9.63032 11.5834C9.31715 11.1147 9.15 10.5637 9.15 10C9.15263 9.24494 9.45375 8.52158 9.98766 7.98767C10.5216 7.45376 11.2449 7.15263 12 7.14999ZM12 6.25C11.2583 6.25 10.5333 6.46993 9.91662 6.88199C9.29993 7.29404 8.81928 7.87972 8.53545 8.56494C8.25162 9.25016 8.17736 10.0042 8.32206 10.7316C8.46675 11.459 8.8239 12.1272 9.34835 12.6516C9.8728 13.1761 10.541 13.5333 11.2684 13.6779C11.9959 13.8226 12.7498 13.7484 13.4351 13.4645C14.1203 13.1807 14.706 12.7001 15.118 12.0834C15.5301 11.4667 15.75 10.7417 15.75 10C15.75 9.00544 15.3549 8.05162 14.6517 7.34836C13.9484 6.6451 12.9946 6.25 12 6.25Z" fill="white"/>
</svg>
