<svg width="20" height="20" viewBox="0 0 20 20" fill="none" xmlns="http://www.w3.org/2000/svg">
<path fill-rule="evenodd" clip-rule="evenodd" d="M11.2399 15.8798L7.87991 19.2398C7.60026 19.1968 7.3469 19.0505 7.16991 18.8298C6.73991 18.4198 6.75991 18.1198 6.75991 18.1198L10.1199 14.7598L11.2399 15.8798Z" fill="white"/>
<path d="M13.9996 8.58002C14.6767 8.57867 15.3386 8.78073 15.8996 9.16002C16.461 9.53492 16.8993 10.0671 17.1596 10.69C17.4254 11.3217 17.4917 12.0196 17.3496 12.69C17.2206 13.3529 16.8966 13.9621 16.4191 14.4395C15.9416 14.917 15.3324 15.241 14.6696 15.37C13.9991 15.5121 13.3012 15.4458 12.6696 15.18C12.0467 14.9197 11.5145 14.4814 11.1396 13.92C10.7929 13.4029 10.5935 12.8013 10.5627 12.1795C10.532 11.5578 10.671 10.9394 10.9649 10.3906C11.2588 9.84183 11.6965 9.38339 12.2311 9.06443C12.7657 8.74547 13.377 8.57802 13.9996 8.58002ZM13.9996 7.50002C12.9557 7.49814 11.9436 7.85839 11.1357 8.51934C10.3278 9.18029 9.77418 10.101 9.56924 11.1245C9.36429 12.148 9.52072 13.2109 10.0118 14.132C10.503 15.053 11.2984 15.7752 12.2624 16.1754C13.2265 16.5756 14.2995 16.629 15.2985 16.3264C16.2975 16.0239 17.1607 15.3843 17.7408 14.5165C18.3209 13.6487 18.5821 12.6066 18.4797 11.5678C18.3774 10.529 17.9179 9.55789 17.1796 8.82002C16.7634 8.40025 16.268 8.06739 15.7221 7.84078C15.1762 7.61418 14.5906 7.49834 13.9996 7.50002Z" fill="white"/>
<path d="M5.00031 14.0901L0.320312 10.0002L5.00031 5.91016V14.0901Z" fill="white"/>
<path d="M7.5 10H4.5" stroke="white" stroke-width="2" stroke-miterlimit="10" stroke-linecap="round"/>
<path d="M15 7.21004L18.68 4.00004L15 0.790039V7.21004Z" fill="white"/>
<path d="M8.5 4H17.5" stroke="white" stroke-width="2" stroke-miterlimit="10" stroke-linecap="round"/>
</svg>
