<svg width="16" height="16" viewBox="0 0 16 16" fill="none" xmlns="http://www.w3.org/2000/svg">
<g clip-path="url(#clip0_875:47117)">
<path d="M8.00012 10.1301C9.17648 10.1301 10.1301 9.17648 10.1301 8.00012C10.1301 6.82375 9.17648 5.87012 8.00012 5.87012C6.82375 5.87012 5.87012 6.82375 5.87012 8.00012C5.87012 9.17648 6.82375 10.1301 8.00012 10.1301Z" fill="white"/>
<path d="M10.8799 5.11981L11.4599 4.53979C12.3759 5.45833 12.8903 6.70262 12.8903 7.99982C12.8903 9.29702 12.3759 10.5413 11.4599 11.4598L10.8799 10.8798C11.2596 10.5025 11.561 10.0538 11.7667 9.55951C11.9723 9.06524 12.0782 8.53516 12.0782 7.99982C12.0782 7.46447 11.9723 6.93439 11.7667 6.44012C11.561 5.94586 11.2596 5.49715 10.8799 5.11981V5.11981ZM3.87988 7.99982C3.87675 7.46386 3.98136 6.93273 4.1875 6.43799C4.39364 5.94325 4.69713 5.49498 5.0799 5.11981L4.49988 4.53979C3.5839 5.45833 3.06952 6.70262 3.06952 7.99982C3.06952 9.29702 3.5839 10.5413 4.49988 11.4598L5.0799 10.8798C4.70435 10.5013 4.40825 10.0515 4.20905 9.55695C4.00984 9.06236 3.9115 8.53295 3.91986 7.99982H3.87988ZM0.769897 7.99982C0.767682 7.05553 0.953033 6.12023 1.31525 5.24817C1.67746 4.37611 2.20931 3.58464 2.87988 2.9198L2.29987 2.33984C1.55605 3.08283 0.96601 3.96509 0.563416 4.93628C0.160821 5.90746 -0.0463867 6.94849 -0.0463867 7.99982C-0.0463867 9.05114 0.160821 10.0922 0.563416 11.0634C0.96601 12.0345 1.55605 12.9168 2.29987 13.6598L2.87988 13.0798C2.21653 12.4117 1.69208 11.6187 1.33679 10.7468C0.981506 9.87492 0.802415 8.9413 0.809875 7.99982H0.769897ZM13.6199 2.33984L13.0399 2.9198C13.7087 3.58596 14.2394 4.37763 14.6015 5.24939C14.9636 6.12115 15.15 7.05585 15.15 7.99982C15.15 8.94379 14.9636 9.87849 14.6015 10.7502C14.2394 11.622 13.7087 12.4137 13.0399 13.0798L13.6199 13.6598C14.3637 12.9168 14.9538 12.0345 15.3564 11.0634C15.759 10.0922 15.9662 9.05114 15.9662 7.99982C15.9662 6.94849 15.759 5.90746 15.3564 4.93628C14.9538 3.96509 14.3637 3.08283 13.6199 2.33984Z" fill="white"/>
</g>
<defs>
<clipPath id="clip0_875:47117">
<rect width="16" height="16" fill="white"/>
</clipPath>
</defs>
</svg>
