<svg width="16" height="16" viewBox="0 0 16 16" fill="none" xmlns="http://www.w3.org/2000/svg">
<path opacity="0.5" d="M8.33008 5.2002L0.220032 12.9802C0.0927672 13.1156 0.0219727 13.2944 0.0219727 13.4802C0.0219727 13.666 0.0927672 13.8448 0.220032 13.9802L0.970032 14.7402C1.10425 14.8698 1.2835 14.9421 1.47003 14.9421C1.65656 14.9421 1.83581 14.8698 1.97003 14.7402L9.49005 6.35022L8.33008 5.2002Z" fill="white"/>
<path d="M15.6599 6.32992C15.4699 6.10992 14.7999 5.74994 14.5599 5.96994C14.0758 5.82788 13.6193 5.6048 13.2099 5.31003C12.8699 4.94003 13.2099 3.79995 12.9099 3.47995L11.6399 2.20993C11.0399 1.60993 8.76988 0.319918 4.37988 1.44992L4.46985 1.96994C4.46985 1.96994 7.35986 1.32995 8.91986 2.85995C8.91986 2.85995 9.27986 4.17991 8.97986 4.56991L8.80988 4.72995L9.96985 5.88998C10.8201 5.77316 11.6861 5.88351 12.4799 6.20993C12.7899 6.49993 13.1099 7.44994 12.8899 7.59994C12.6699 7.74994 13.1499 8.40994 13.3699 8.59994L13.7699 8.85995L15.7699 6.85995L15.6599 6.32992Z" fill="white"/>
</svg>
