<svg width="20" height="20" viewBox="0 0 20 20" fill="none" xmlns="http://www.w3.org/2000/svg">
<path d="M10.5398 6.58984L0.269791 16.4398C0.0969725 16.614 0 16.8495 0 17.0948C0 17.3402 0.0969725 17.5757 0.269791 17.7498L1.21979 18.7498C1.39568 18.9233 1.63277 19.0205 1.87979 19.0205C2.12681 19.0205 2.36389 18.9233 2.53978 18.7498L12.0498 8.11984L10.5398 6.58984Z" fill="white" fill-opacity="0.5"/>
<path d="M19.83 7.9999C19.58 7.7299 18.73 7.2699 18.43 7.5499C17.8212 7.36969 17.2466 7.08917 16.73 6.7199C16.3 6.2399 16.7301 4.79989 16.3501 4.39989C16.1601 4.21989 15.4301 3.48989 14.7401 2.78989C14.0501 2.08989 11.1 0.389894 5.54004 1.78989L5.66005 2.45991C5.66005 2.45991 9.32004 1.6399 11.29 3.5799C11.29 3.5799 11.74 5.24991 11.37 5.73991L11.15 5.9499L12.62 7.4199C13.26 7.3299 15.35 7.35991 15.8 7.81991C16.25 8.27991 16.59 9.38991 16.31 9.56991C16.03 9.74991 16.64 10.5699 16.92 10.8499L17.43 11.1699L19.98 8.6199L19.83 7.9999Z" fill="white"/>
</svg>
