<svg width="20" height="20" viewBox="0 0 20 20" fill="none" xmlns="http://www.w3.org/2000/svg">
<g clip-path="url(#clip0_875:47213)">
<path d="M13.75 11.6C13.7985 11.4095 13.8029 11.2105 13.7628 11.0181C13.7227 10.8256 13.6392 10.6449 13.5186 10.4897C13.398 10.3345 13.2436 10.2089 13.067 10.1225C12.8905 10.0361 12.6965 9.99121 12.5 9.99121C12.3034 9.99121 12.1095 10.0361 11.9329 10.1225C11.7564 10.2089 11.6019 10.3345 11.4813 10.4897C11.3607 10.6449 11.2772 10.8256 11.2371 11.0181C11.197 11.2105 11.2014 11.4095 11.25 11.6V12.4C11.2014 12.5904 11.197 12.7894 11.2371 12.9819C11.2772 13.1743 11.3607 13.355 11.4813 13.5102C11.6019 13.6654 11.7564 13.791 11.9329 13.8774C12.1095 13.9638 12.3034 14.0087 12.5 14.0087C12.6965 14.0087 12.8905 13.9638 13.067 13.8774C13.2436 13.791 13.398 13.6654 13.5186 13.5102C13.6392 13.355 13.7227 13.1743 13.7628 12.9819C13.8029 12.7894 13.7985 12.5904 13.75 12.4V11.6Z" stroke="white" stroke-miterlimit="10"/>
<path d="M9.74996 11.6C9.79853 11.4095 9.80294 11.2105 9.76284 11.0181C9.72275 10.8256 9.63921 10.6449 9.51861 10.4897C9.39802 10.3345 9.24355 10.2089 9.06701 10.1225C8.89047 10.0361 8.69651 9.99121 8.49996 9.99121C8.30341 9.99121 8.10946 10.0361 7.93292 10.1225C7.75637 10.2089 7.60191 10.3345 7.48132 10.4897C7.36072 10.6449 7.27718 10.8256 7.23709 11.0181C7.19699 11.2105 7.2014 11.4095 7.24996 11.6V12.4C7.2014 12.5904 7.19699 12.7894 7.23709 12.9819C7.27718 13.1743 7.36072 13.355 7.48132 13.5102C7.60191 13.6654 7.75637 13.791 7.93292 13.8774C8.10946 13.9638 8.30341 14.0087 8.49996 14.0087C8.69651 14.0087 8.89047 13.9638 9.06701 13.8774C9.24355 13.791 9.39802 13.6654 9.51861 13.5102C9.63921 13.355 9.72275 13.1743 9.76284 12.9819C9.80294 12.7894 9.79853 12.5904 9.74996 12.4V11.6Z" stroke="white" stroke-miterlimit="10"/>
<path d="M5.49996 12.1199C5.62259 12.1199 5.74245 12.0835 5.84441 12.0154C5.94637 11.9473 6.02583 11.8504 6.07276 11.7371C6.11969 11.6239 6.13198 11.4992 6.10805 11.3789C6.08413 11.2587 6.02507 11.1482 5.93836 11.0615C5.85165 10.9748 5.74119 10.9157 5.62092 10.8918C5.50065 10.8679 5.37599 10.8801 5.2627 10.9271C5.14941 10.974 5.05257 11.0535 4.98444 11.1554C4.91632 11.2574 4.87997 11.3773 4.87997 11.4999C4.87861 11.5817 4.89372 11.6629 4.9244 11.7387C4.95508 11.8146 5.0007 11.8835 5.05854 11.9413C5.11638 11.9991 5.18527 12.0448 5.2611 12.0754C5.33693 12.1061 5.41817 12.1212 5.49996 12.1199Z" fill="white"/>
<path d="M5.49996 14.1199C5.62259 14.1199 5.74245 14.0835 5.84441 14.0154C5.94637 13.9473 6.02583 13.8504 6.07276 13.7371C6.11969 13.6239 6.13198 13.4992 6.10805 13.3789C6.08413 13.2587 6.02507 13.1482 5.93836 13.0615C5.85165 12.9748 5.74119 12.9157 5.62092 12.8918C5.50065 12.8679 5.37599 12.8801 5.2627 12.9271C5.14941 12.974 5.05257 13.0535 4.98444 13.1554C4.91632 13.2574 4.87997 13.3773 4.87997 13.4999C4.87861 13.5817 4.89372 13.6629 4.9244 13.7387C4.95508 13.8146 5.0007 13.8835 5.05854 13.9413C5.11638 13.9991 5.18527 14.0448 5.2611 14.0754C5.33693 14.1061 5.41817 14.1212 5.49996 14.1199Z" fill="white"/>
<path fill-rule="evenodd" clip-rule="evenodd" d="M8.99999 5.53978C7.50816 5.54171 6.06313 6.0607 4.91097 7.00839C3.75881 7.95607 2.97078 9.27383 2.68108 10.7373C2.39139 12.2007 2.61793 13.7193 3.32215 15.0345C4.02636 16.3496 5.1647 17.38 6.54329 17.9502C7.92188 18.5203 9.45547 18.5949 10.8829 18.1613C12.3103 17.7278 13.5433 16.8128 14.3719 15.5722C15.2005 14.3317 15.5735 12.8422 15.4273 11.3576C15.281 9.87292 14.6247 8.48486 13.57 7.42978C12.97 6.8296 12.2575 6.35371 11.4733 6.02939C10.6891 5.70507 9.84862 5.53869 8.99999 5.53978V5.53978ZM4.55999 5.34978C6.15576 4.28527 8.0809 3.82958 9.98455 4.06578C11.8882 4.30197 13.6436 5.21431 14.9308 6.63653C16.2181 8.05875 16.9514 9.89615 16.9972 11.8138C17.043 13.7315 16.3983 15.6019 15.1804 17.0839C13.9626 18.566 12.2527 19.5611 10.3625 19.8879C8.47233 20.2148 6.52763 19.8515 4.88285 18.8644C3.23807 17.8773 2.00272 16.3321 1.40197 14.5103C0.801209 12.6886 0.875033 10.7116 1.60999 8.93978C2.21649 7.47761 3.24313 6.22823 4.55999 5.34978Z" fill="white"/>
<path d="M14.8799 3.62L17.3799 6.12L18.5399 5L16.0399 2.5L14.8799 3.62Z" fill="white"/>
<path opacity="0.5" d="M13.6201 5.6699L15.3301 7.3799L17.1001 5.6099L15.3901 3.8999L13.6201 5.6699Z" fill="white"/>
<path d="M12 0H6V2H12V0Z" fill="white"/>
<path opacity="0.5" d="M11 2H7V5H11V2Z" fill="white"/>
</g>
<defs>
<clipPath id="clip0_875:47213">
<rect width="20" height="20" fill="white"/>
</clipPath>
</defs>
</svg>
