<svg width="16" height="16" viewBox="0 0 16 16" fill="none" xmlns="http://www.w3.org/2000/svg">
<g clip-path="url(#clip0_875:47202)">
<path fill-rule="evenodd" clip-rule="evenodd" d="M7.50001 4.25C6.46166 4.25 5.44663 4.55791 4.58327 5.1348C3.71992 5.71166 3.04704 6.5316 2.64967 7.49093C2.2523 8.45027 2.1483 9.50584 2.35087 10.5242C2.55344 11.5426 3.05347 12.4781 3.7877 13.2123C4.52193 13.9465 5.45741 14.4466 6.47581 14.6491C7.49417 14.8517 8.54974 14.7477 9.50908 14.3503C10.4684 13.953 11.2883 13.2801 11.8652 12.4167C12.4421 11.5534 12.75 10.5383 12.75 9.5C12.75 8.10762 12.1969 6.77226 11.2123 5.78769C10.2277 4.80312 8.89239 4.25 7.50001 4.25ZM3.8888 4.09546C4.95772 3.38123 6.21443 3 7.50001 3C9.22392 3 10.8772 3.68482 12.0962 4.90381C13.3152 6.1228 14 7.77609 14 9.5C14 10.7856 13.6188 12.0423 12.9045 13.1112C12.1903 14.1801 11.1752 15.0132 9.98744 15.5052C8.79972 15.9972 7.49282 16.1259 6.23194 15.8751C4.97107 15.6243 3.81286 15.0052 2.90382 14.0962C1.99478 13.1872 1.37569 12.0289 1.12489 10.7681C0.874083 9.50719 1.00285 8.20029 1.49482 7.01257C1.98679 5.82485 2.81988 4.80969 3.8888 4.09546Z" fill="white"/>
<path d="M12.5912 3.4144L14.5923 5.41553L15.858 4.14982L13.8569 2.1487L12.5912 3.4144Z" fill="white"/>
<path d="M10 0H5V2H10V0Z" fill="white"/>
<path d="M11.5 9.25C11.5 8.69772 11.0523 8.25 10.5 8.25C9.94772 8.25 9.5 8.69772 9.5 9.25V9.75C9.5 10.3023 9.94772 10.75 10.5 10.75C11.0523 10.75 11.5 10.3023 11.5 9.75V9.25Z" stroke="white" stroke-width="0.5" stroke-miterlimit="10"/>
<path d="M8.5 9.25C8.5 8.69772 8.05228 8.25 7.5 8.25C6.94772 8.25 6.5 8.69772 6.5 9.25V9.75C6.5 10.3023 6.94772 10.75 7.5 10.75C8.05228 10.75 8.5 10.3023 8.5 9.75V9.25Z" stroke="white" stroke-width="0.5" stroke-miterlimit="10"/>
<path d="M4.5 9C4.77614 9 5 8.77614 5 8.5C5 8.22386 4.77614 8 4.5 8C4.22386 8 4 8.22386 4 8.5C4 8.77614 4.22386 9 4.5 9Z" fill="white"/>
<path d="M4.5 11C4.77614 11 5 10.7761 5 10.5C5 10.2239 4.77614 10 4.5 10C4.22386 10 4 10.2239 4 10.5C4 10.7761 4.22386 11 4.5 11Z" fill="white"/>
</g>
<defs>
<clipPath id="clip0_875:47202">
<rect width="16" height="16" fill="white"/>
</clipPath>
</defs>
</svg>
