<svg width="20" height="20" viewBox="0 0 20 20" fill="none" xmlns="http://www.w3.org/2000/svg">
<path d="M9.99982 2.58984C11.4654 2.58984 12.898 3.0244 14.1166 3.83862C15.3352 4.65284 16.2849 5.81012 16.8458 7.16412C17.4066 8.51812 17.5534 10.008 17.2675 11.4454C16.9815 12.8828 16.2758 14.2032 15.2395 15.2395C14.2032 16.2758 12.8828 16.9815 11.4454 17.2675C10.008 17.5534 8.51813 17.4066 7.16413 16.8458C5.81013 16.2849 4.65285 15.3351 3.83863 14.1166C3.02441 12.898 2.58985 11.4654 2.58985 9.99982C2.59513 8.03619 3.3775 6.15449 4.766 4.76599C6.1545 3.37749 8.03619 2.59512 9.99982 2.58984ZM9.99982 1.08984C8.23759 1.08984 6.51493 1.61239 5.04969 2.59143C3.58445 3.57047 2.44245 4.962 1.76807 6.59009C1.0937 8.21818 0.917259 10.0097 1.26105 11.7381C1.60485 13.4665 2.45344 15.054 3.69953 16.3001C4.94562 17.5462 6.53317 18.3948 8.26154 18.7386C9.98991 19.0824 11.7815 18.9059 13.4096 18.2316C15.0376 17.5572 16.4292 16.4152 17.4082 14.95C18.3873 13.4847 18.9098 11.762 18.9098 9.99982C18.9098 7.63674 17.9711 5.37047 16.3001 3.69952C14.6292 2.02857 12.3629 1.08984 9.99982 1.08984Z" fill="white"/>
<path fill-rule="evenodd" clip-rule="evenodd" d="M10 4.24023C9.79659 4.24283 9.60222 4.32478 9.45837 4.46863C9.31453 4.61247 9.23257 4.80684 9.22998 5.01025V10.6403L12.4 13.6403C12.5394 13.7593 12.7167 13.8246 12.9 13.8246C13.0833 13.8246 13.2606 13.7593 13.4 13.6403C13.4779 13.5682 13.54 13.4808 13.5825 13.3835C13.6249 13.2863 13.6469 13.1814 13.6469 13.0753C13.6469 12.9692 13.6249 12.8642 13.5825 12.767C13.54 12.6697 13.4779 12.5823 13.4 12.5103L10.71 9.98022V4.98022C10.7011 4.7919 10.6242 4.61322 10.4937 4.47717C10.3632 4.34113 10.1878 4.25694 10 4.24023Z" fill="white"/>
</svg>
