<svg width="16" height="16" viewBox="0 0 16 16" fill="none" xmlns="http://www.w3.org/2000/svg">
<path fill-rule="evenodd" clip-rule="evenodd" d="M8.00002 1.5C6.71445 1.5 5.45774 1.88123 4.38882 2.59546C3.3199 3.30969 2.48674 4.32485 1.99478 5.51257C1.50281 6.70029 1.3741 8.00719 1.6249 9.26807C1.87571 10.5289 2.49479 11.6872 3.40383 12.5962C4.31287 13.5052 5.47108 14.1243 6.73196 14.3751C7.99283 14.6259 9.29973 14.4972 10.4875 14.0052C11.6752 13.5132 12.6903 12.6801 13.4046 11.6112C14.1188 10.5423 14.5 9.28558 14.5 8C14.5 6.27609 13.8152 4.6228 12.5962 3.40381C11.3772 2.18482 9.72393 1.5 8.00002 1.5Z" stroke="white" stroke-width="1.5" stroke-miterlimit="10"/>
<path d="M8 4V8L10.5 10.5" stroke="white" stroke-width="1.5" stroke-miterlimit="10" stroke-linecap="round"/>
</svg>
