<svg width="16" height="16" viewBox="0 0 16 16" fill="none" xmlns="http://www.w3.org/2000/svg">
<path d="M2.5 13.5L13.5 2.5" stroke="white" stroke-width="1.5" stroke-miterlimit="10"/>
<path d="M2.45046 10.4003C2.14437 9.63764 1.99145 8.8221 2.00044 8.00032C1.96446 7.2631 2.08285 6.52653 2.34804 5.83772C2.61323 5.14891 3.01938 4.52307 3.54045 4.00032C4.7727 2.93536 6.37552 2.3999 8.00044 2.51033C8.8224 2.49805 9.64152 2.60931 10.4304 2.84034L9.43044 3.7903H9.36043C8.92092 3.6494 8.46198 3.57857 8.00044 3.58033C7.46837 3.54623 6.93591 3.64117 6.44841 3.85707C5.96091 4.07296 5.5328 4.40341 5.20046 4.82032C4.52187 5.72392 4.16938 6.83074 4.20046 7.96034C4.20046 8.20034 4.20046 8.45029 4.20046 8.72029L2.45046 10.4003ZM11.7104 7.40034C11.7409 7.57231 11.7609 7.74592 11.7704 7.9203C11.7807 9.03375 11.4718 10.1269 10.8804 11.0703C10.5572 11.5579 10.1069 11.9479 9.5782 12.1981C9.04947 12.4484 8.46242 12.5494 7.88045 12.4903C7.448 12.4963 7.01792 12.4252 6.61043 12.2803L5.61043 13.2203C6.37192 13.4334 7.15974 13.5378 7.95046 13.5303C9.57566 13.643 11.1793 13.1072 12.4104 12.0403C12.9315 11.5175 13.3376 10.8918 13.6028 10.203C13.868 9.51415 13.9864 8.77751 13.9505 8.0403C13.9594 7.21851 13.8065 6.40304 13.5004 5.64033L11.7104 7.40034Z" fill="white"/>
</svg>
