<?xml version="1.0" standalone="no"?><!DOCTYPE svg PUBLIC "-//W3C//DTD SVG 1.1//EN" "http://www.w3.org/Graphics/SVG/1.1/DTD/svg11.dtd"><svg t="1750456718815" class="icon" viewBox="0 0 1024 1024" version="1.1" xmlns="http://www.w3.org/2000/svg" p-id="14719" xmlns:xlink="http://www.w3.org/1999/xlink" width="200" height="200"><path d="M502.272 1022.464c-3.072 0-5.632-0.512-8.192-1.024L36.864 930.816c-20.48-3.584-36.352-22.528-36.352-43.008V200.704c0-12.288 5.632-23.552 14.848-30.72 9.216-7.168 20.992-10.24 33.792-8.192l433.152 86.016V41.984c0-11.776 5.12-23.04 14.848-30.72 9.216-7.68 21.504-10.24 33.792-8.192l456.704 90.624c20.992 3.584 36.864 22.528 36.864 43.008v688.128c0 11.776-5.12 23.04-14.848 30.72-7.168 5.632-16.384 8.704-25.6 8.704-2.56 0-5.632-0.512-8.192-1.024l-433.664-86.016v206.336c0 11.776-5.12 22.528-14.848 30.72-7.168 5.12-16.384 8.192-25.088 8.192zM60.416 875.52L481.28 958.976v-316.928c0-15.872 14.336-29.696 31.232-29.696 16.384 0 30.208 13.312 30.208 29.696V716.8l420.864 83.456v-650.24L542.208 66.56l-0.512 330.752c0 16.384-13.312 29.696-30.208 29.696S481.28 413.696 481.28 397.312V308.736L60.416 225.28v650.24z" p-id="14720" fill="#ffffff"></path><path d="M365.568 714.24c-4.608 0-9.216-1.024-13.312-3.584l-130.048-64c-10.752-5.632-17.408-16.384-16.896-28.16 0.512-11.776 7.68-22.016 18.944-26.624l475.136-184.832-75.264-34.304c-7.68-3.584-13.312-9.728-15.872-17.408-2.56-7.168-2.048-14.848 1.536-22.016 7.168-14.848 25.088-21.504 40.448-14.336l138.752 64c11.264 5.12 17.92 15.872 17.408 28.16 0 11.264-7.68 22.528-18.944 27.136l-477.184 185.856 69.632 33.792c7.168 3.584 12.288 9.216 14.848 16.896 2.56 7.68 2.048 15.872-1.536 23.04-5.632 10.24-16.384 16.384-27.648 16.384z" p-id="14721" fill="#ffffff"></path></svg>