<svg width="64" height="64" xmlns="http://www.w3.org/2000/svg">
 <defs>
  <linearGradient y2="0.00568" x2="0.98807" y1="0.97355" x1="0.0326" id="svg_4">
   <stop stop-color="#B3B3B3"/>
   <stop stop-color="#F2F2F2" offset="1"/>
  </linearGradient>
  <linearGradient y2="0.5" x2="1.00092" y1="0.5" x1="0" id="svg_3">
   <stop stop-color="#666666"/>
   <stop stop-color="#999999" offset="1"/>
  </linearGradient>
  <linearGradient y2="0.98898" x2="0.50572" y1="0.03498" x1="0.49006" id="svg_2">
   <stop stop-color="white"/>
   <stop stop-color="#B3B3B3" offset="1"/>
  </linearGradient>
  <linearGradient y2="1.12456" x2="-0.27603" y1="0.21712" x1="0.8541" id="svg_1">
   <stop stop-color="#CCCCCC"/>
   <stop stop-color="#808080" offset="1"/>
  </linearGradient>
 </defs>
 <g>
  <title>Layer 1</title>
  <g id="svg_7">
   <path fill="url(#svg_4)" d="m50.80681,54.74685l-34.36,0l0,-45.74l20.61,0l13.75,14.55l0,31.19z" id="svg_9"/>
   <path fill="url(#svg_3)" d="m36.97681,11.43685l10.93,11.74l-10.88,0l-0.05,-11.74z" id="svg_10"/>
   <path fill="black" d="m22.27521,28.87685l-0.9437,0l0,-6.2553l-1.8923,0.695l0,-0.8523l2.6888,-1.0096l0.1472,0l0,7.4222z" id="svg_11"/>
   <path fill="black" d="m24.03051,40.14685l-4.8399,0l0,-0.6747l2.5569,-2.841c0.3788,-0.4296 0.6393,-0.7779 0.7813,-1.0451c0.1455,-0.2706 0.2182,-0.5496 0.2182,-0.8371c0,-0.3856 -0.1167,-0.7018 -0.3501,-0.9487c-0.2334,-0.2469 -0.5445,-0.3704 -0.9335,-0.3704c-0.4667,0 -0.8303,0.1336 -1.0907,0.4008c-0.2571,0.2638 -0.3856,0.6325 -0.3856,1.106l-0.9385,0c0,-0.6798 0.2181,-1.2294 0.6544,-1.6488c0.4397,-0.4194 1.0265,-0.6291 1.7604,-0.6291c0.6866,0 1.2295,0.181 1.6286,0.5428c0.399,0.3586 0.5986,0.8371 0.5986,1.4358c0,0.7271 -0.4634,1.593 -1.3901,2.5975l-1.9785,2.146l3.7085,0l0,0.766z" id="svg_12"/>
   <path fill="black" d="m20.55531,47.26695l0.7052,0c0.4431,-0.0068 0.7914,-0.1235 1.0451,-0.3501c0.2537,-0.2266 0.3805,-0.5327 0.3805,-0.9182c0,-0.8659 -0.4312,-1.2988 -1.2937,-1.2988c-0.4058,0 -0.7305,0.1167 -0.974,0.3501c-0.2402,0.23 -0.3602,0.5361 -0.3602,0.9182l-0.9386,0c0,-0.5851 0.2131,-1.0704 0.6392,-1.456c0.4296,-0.3889 0.9741,-0.5834 1.6336,-0.5834c0.6967,0 1.243,0.1843 1.6387,0.553c0.3957,0.3686 0.5935,0.881 0.5935,1.5372c0,0.3213 -0.1048,0.6324 -0.3145,0.9335c-0.2063,0.301 -0.4887,0.5259 -0.8472,0.6747c0.4058,0.1285 0.7187,0.3416 0.9385,0.6392c0.2232,0.2977 0.3349,0.6612 0.3349,1.0908c0,0.6629 -0.2165,1.1888 -0.6494,1.5777c-0.4329,0.389 -0.9961,0.5835 -1.6894,0.5835c-0.6934,0 -1.2582,-0.1877 -1.6945,-0.5632c-0.4329,-0.3754 -0.6494,-0.8709 -0.6494,-1.4864l0.9437,0c0,0.3889 0.1268,0.7001 0.3805,0.9335c0.2536,0.2333 0.5935,0.35 1.0197,0.35c0.4532,0 0.7999,-0.1184 1.04,-0.3551c0.2401,-0.2368 0.3602,-0.5767 0.3602,-1.0197c0,-0.4296 -0.1319,-0.7593 -0.3957,-0.9893c-0.2638,-0.23 -0.6443,-0.3484 -1.1415,-0.3551l-0.7052,0l0,-0.7661z" id="svg_13"/>
   <path fill="#3F3F3F" d="m46.20681,26.11685l-18.77,0l0,3.15l18.77,0l0,-3.15z" id="svg_14"/>
   <path fill="#3F3F3F" d="m46.36681,37.44685l-18.77,0l0,3.15l18.77,0l0,-3.15z" id="svg_15"/>
   <path fill="#3F3F3F" d="m46.36681,48.76685l-18.77,0l0,3.15l18.77,0l0,-3.15z" id="svg_16"/>
   <path fill="black" d="m39.99681,9.88686l-0.58,12.87999l11.56,-0.43l-10.98,-12.44999z" opacity="0.3" id="svg_17"/>
   <path fill="#333333" d="m50.99681,58.75685l-39.69,0l0,-52.09l23.81,0l15.88,16.58l0,35.51z" id="svg_18"/>
   <path fill="url(#svg_2)" d="m53.05681,19.98685l0,37.36l-40.24,0l0,-51.73999l27.56,0" id="svg_19"/>
   <path fill="black" d="m40.37681,5.60686l-1.58,15.67999l14.26,-1.3l-12.68,-14.37999z" opacity="0.7" id="svg_20"/>
   <path fill="url(#svg_1)" d="m40.39681,5.60686l-0.03,14.29999l12.68,0.07l-12.65,-14.36999z" id="svg_21"/>
   <path fill="black" d="m19.34521,27.86685l-0.9437,0l0,-6.2553l-1.8923,0.695l0,-0.8523l2.6888,-1.0095l0.1472,0l0,7.4221z" opacity="0.8" id="svg_22"/>
   <path fill="black" d="m21.10051,40.38685l-4.8399,0l0,-0.6747l2.5569,-2.8411c0.3789,-0.4295 0.6393,-0.7778 0.7813,-1.045c0.1455,-0.2706 0.2182,-0.5496 0.2182,-0.8371c0,-0.3856 -0.1167,-0.7018 -0.3501,-0.9487c-0.2333,-0.2469 -0.5445,-0.3704 -0.9335,-0.3704c-0.4667,0 -0.8303,0.1336 -1.0907,0.4008c-0.257,0.2638 -0.3856,0.6325 -0.3856,1.106l-0.9385,0c0,-0.6798 0.2181,-1.2294 0.6544,-1.6488c0.4397,-0.4194 1.0265,-0.6291 1.7604,-0.6291c0.6866,0 1.2295,0.1809 1.6286,0.5428c0.3991,0.3585 0.5986,0.8371 0.5986,1.4358c0,0.7271 -0.4634,1.593 -1.3901,2.5975l-1.9785,2.1459l3.7085,0l0,0.7661z" opacity="0.8" id="svg_23"/>
   <path fill="black" d="m17.62531,48.76695l0.7052,0c0.4431,-0.0068 0.7914,-0.1235 1.0451,-0.3501c0.2537,-0.2266 0.3805,-0.5327 0.3805,-0.9182c0,-0.8659 -0.4312,-1.2988 -1.2937,-1.2988c-0.4058,0 -0.7305,0.1167 -0.974,0.3501c-0.2402,0.23 -0.3602,0.5361 -0.3602,0.9182l-0.9386,0c0,-0.5851 0.2131,-1.0704 0.6392,-1.456c0.4296,-0.3889 0.9741,-0.5834 1.6336,-0.5834c0.6967,0 1.243,0.1843 1.6387,0.553c0.3957,0.3686 0.5935,0.881 0.5935,1.5372c0,0.3213 -0.1048,0.6324 -0.3145,0.9335c-0.2063,0.301 -0.4887,0.5259 -0.8472,0.6747c0.4058,0.1285 0.7187,0.3416 0.9385,0.6392c0.2232,0.2977 0.3349,0.6612 0.3349,1.0908c0,0.6629 -0.2165,1.1888 -0.6494,1.5777c-0.4329,0.389 -0.9961,0.5835 -1.6894,0.5835c-0.6933,0 -1.2582,-0.1877 -1.6945,-0.5632c-0.4329,-0.3754 -0.6493,-0.8709 -0.6493,-1.4864l0.9436,0c0,0.3889 0.1268,0.7001 0.3805,0.9335c0.2536,0.2333 0.5935,0.35 1.0197,0.35c0.4532,0 0.7999,-0.1184 1.04,-0.3551c0.2401,-0.2368 0.3602,-0.5767 0.3602,-1.0197c0,-0.4296 -0.1319,-0.7593 -0.3957,-0.9893c-0.2638,-0.23 -0.6443,-0.3484 -1.1415,-0.3551l-0.7052,0l0,-0.7661z" opacity="0.8" id="svg_24"/>
   <path fill="#3F3F3F" d="m49.97681,23.20685l-26.16,0l0,2.83l26.16,0l0,-2.83z" opacity="0.8" id="svg_25"/>
   <path fill="#3F3F3F" d="m49.97681,35.51685l-26.16,0l0,2.83l26.16,0l0,-2.83z" opacity="0.8" id="svg_26"/>
   <path fill="#3F3F3F" d="m49.97681,47.83685l-26.16,0l0,2.83l26.16,0l0,-2.83z" opacity="0.8" id="svg_27"/>
  </g>
  <path fill="none" stroke="#000" opacity="NaN" d="m31.50802,11.50802" id="svg_30"/>
 </g>
</svg>