<?xml version="1.0" standalone="no"?><!DOCTYPE svg PUBLIC "-//W3C//DTD SVG 1.1//EN" "http://www.w3.org/Graphics/SVG/1.1/DTD/svg11.dtd"><svg t="1750456625026" class="icon" viewBox="0 0 1024 1024" version="1.1" xmlns="http://www.w3.org/2000/svg" p-id="10967" xmlns:xlink="http://www.w3.org/1999/xlink" width="200" height="200"><path d="M926.165315 1024h-828.29645A97.982799 97.982799 0 0 1 0.03418 926.165315v-828.29645A97.982799 97.982799 0 0 1 97.868865 0.03418h828.29645a97.982799 97.982799 0 0 1 97.834685 97.834685v828.29645a97.982799 97.982799 0 0 1-97.834685 97.834685z m0-72.917432a24.94004 24.94004 0 0 0 24.917253-24.917253v-828.29645a24.951434 24.951434 0 0 0-24.917253-24.917253h-828.29645A24.951434 24.951434 0 0 0 72.951612 97.868865v828.29645a24.94004 24.94004 0 0 0 24.917253 24.917253z" fill="#ffffff" p-id="10968"></path><path d="M391.543821 299.918511h-44.923974a7.827231 7.827231 0 0 0-7.405677 5.297907l-45.801261 134.270614c-4.93332 13.774559-9.285579 26.204702-13.090958 38.042392-3.474971-11.518676-7.58797-23.926032-12.635224-37.951245l-46.370929-134.441514a7.815837 7.815837 0 0 0-7.394283-5.275121h-45.858229a7.838624 7.838624 0 0 0-7.337316 10.584421l89.790981 239.123602a7.827231 7.827231 0 0 0 7.325923 5.07004h41.016055a7.804444 7.804444 0 0 0 7.291744-5.00168l92.707678-239.112209a7.838624 7.838624 0 0 0-7.291743-10.664174z m212.269479 189.630895V400.134406c0-29.805-6.494209-53.867753-19.300332-71.48187-16.486176-22.672764-42.827598-34.180046-78.306486-34.180046-30.283521 0-60.122701 8.214604-81.89539 22.524651a7.838624 7.838624 0 0 0-3.110384 9.114678l9.729919 28.620092a7.770264 7.770264 0 0 0 4.86496 4.887747 7.850017 7.850017 0 0 0 6.83601-0.865895c15.768395-10.333767 37.142317-16.497569 57.183217-16.497568 29.918934 0 44.923974 14.617666 45.812655 44.650533-54.619714 0.797534-94.325534 13.170711-118.103453 36.823303-15.825361 15.734215-23.846279 35.889048-23.846279 59.894834 0 20.0409 7.21199 38.737386 20.291554 52.671451 14.66324 15.586101 35.319381 23.823492 59.746721 23.823492 26.102162 0 50.392781-9.581806 67.756245-26.204702l1.560888 13.865706a7.827231 7.827231 0 0 0 7.781657 6.938549h39.033613a7.815837 7.815837 0 0 0 7.701904-9.205826c-2.529323-14.161932-3.771198-32.45965-3.771199-55.929949z m-57.12625-56.966743v33.747099a38.008211 38.008211 0 0 1-2.028016 11.393348c-5.400447 15.950688-21.647363 34.70414-49.675 34.704141-20.508028 0-32.676124-12.532684-32.676124-33.667346 0-11.119908 3.418005-19.892787 10.527454-26.819943 12.977024-12.794731 37.848704-19.266153 73.851686-19.357299z m237.129766-136.378384a53.548739 53.548739 0 0 0-14.127752-1.720395c-23.994392 0-45.835442 12.338997-60.384748 32.892597l-0.626634-19.87a7.827231 7.827231 0 0 0-7.827231-7.58797h-37.49551a7.850017 7.850017 0 0 0-7.861411 8.305751c1.344415 20.325734 1.936869 43.180792 1.936869 74.056767v164.519955a7.838624 7.838624 0 0 0 7.827231 7.82723h42.440224a7.838624 7.838624 0 0 0 7.82723-7.82723V419.411952a118.969347 118.969347 0 0 1 1.822936-18.878779c5.468807-30.454421 24.575453-49.378773 49.868687-49.378773a56.61355 56.61355 0 0 1 12.931451 1.287448 7.827231 7.827231 0 0 0 9.536233-7.633543v-41.016056a7.770264 7.770264 0 0 0-5.867575-7.610757zM764.675991 732.056833H259.335403c-18.012884 0-32.607764-16.417815-32.607764-36.697976s14.59488-36.686583 32.607764-36.686583h505.340588c18.012884 0 32.607764 16.417815 32.607763 36.686583s-14.606273 36.697976-32.607763 36.697976z" fill="#ffffff" p-id="10969"></path></svg>