<svg width="16" height="16" viewBox="0 0 16 16" fill="none" xmlns="http://www.w3.org/2000/svg">
<path d="M7.99991 12.1C8.60742 12.1 9.09991 11.6075 9.09991 11C9.09991 10.3925 8.60742 9.89999 7.99991 9.89999C7.3924 9.89999 6.8999 10.3925 6.8999 11C6.8999 11.6075 7.3924 12.1 7.99991 12.1Z" fill="white"/>
<path d="M8 4V8.5" stroke="white" stroke-width="2" stroke-miterlimit="10" stroke-linecap="round"/>
<path d="M8 2C11.3 2 14 4.7 14 8C14 11.3 11.3 14 8 14C4.7 14 2 11.3 2 8C2 4.7 4.7 2 8 2ZM8 0.5C3.9 0.5 0.5 3.9 0.5 8C0.5 12.1 3.9 15.5 8 15.5C12.1 15.5 15.5 12.1 15.5 8C15.5 3.9 12.1 0.5 8 0.5Z" fill="white"/>
</svg>
