<svg width="32" height="32" viewBox="0 0 32 32" fill="none" xmlns="http://www.w3.org/2000/svg">
<path d="M15.9561 2.5C16.1555 2.5 16.5543 2.6 16.8534 3.2L30.2137 27.7C30.4131 28.1 30.4131 28.6 30.114 29.1C30.0143 29.3 29.7152 29.6 29.2166 29.6H2.59583C2.09731 29.6 1.89791 29.3 1.6985 29.1C1.39939 28.7 1.39939 28.2 1.59879 27.8L15.0588 3.1C15.3579 2.6 15.7567 2.5 15.9561 2.5ZM15.9561 1C15.0588 1 14.1614 1.5 13.6629 2.4L0.30265 26.9C-0.594681 28.7 0.60176 31 2.59583 31H29.416C31.3104 31 32.6066 28.8 31.7092 26.9L18.2493 2.4C17.7507 1.5 16.8534 1 15.9561 1Z" fill="white"/>
<path d="M15.9565 26C16.5003 26 16.9535 25.5455 16.9535 25C16.9535 24.4545 16.5003 24 15.9565 24C15.4127 24 14.9595 24.4545 14.9595 25C14.9595 25.5455 15.4127 26 15.9565 26Z" fill="white"/>
<path d="M15.0034 10C15.0034 9.44772 15.4511 9 16.0034 9C16.5557 9 17.0034 9.44772 17.0034 10V21C17.0034 21.5523 16.5557 22 16.0034 22C15.4511 22 15.0034 21.5523 15.0034 21V10Z" fill="white"/>
</svg>
