<svg width="32" height="32" viewBox="0 0 32 32" fill="none" xmlns="http://www.w3.org/2000/svg">
<path d="M8.5 16.9996L12.8 21.8996L23.5 10.0996" stroke="white" stroke-width="2" stroke-miterlimit="10" stroke-linecap="round"/>
<path fill-rule="evenodd" clip-rule="evenodd" d="M19.2 31.7C18.2 31.9 17.1 32 16 32C15.7 32 15.4 32 15.2 32C14.5 32 13.8 31.9 13.1 31.7C7.8 30.7 3.4 27.1 1.3 22.2C1.2 22 1.1 21.7 1 21.5C0.4 19.8 0 17.9 0 16C0 14.2 0.3 12.4 0.9 10.8C3 4.5 9 0 16 0C22.8 0 28.6 4.2 30.9 10.1C31.1 10.5 31.2 11 31.3 11.4C31.7 12.8 32 14.4 32 16C32 18.1 31.6 20 30.9 21.8C28.9 26.8 24.6 30.6 19.2 31.7ZM30.5 16C30.5 24 24 30.5 16 30.5C8 30.5 1.5 24 1.5 16C1.5 8 8 1.5 16 1.5C24 1.5 30.5 8 30.5 16Z" fill="white"/>
</svg>
