<svg width="16" height="16" viewBox="0 0 16 16" fill="none" xmlns="http://www.w3.org/2000/svg">
<path opacity="0.5" fill-rule="evenodd" clip-rule="evenodd" d="M9.61005 0H5.39005C5.10096 0 4.82372 0.114839 4.6193 0.319254C4.41489 0.523668 4.30005 0.800914 4.30005 1.09V2.4H5.90005V1.6C5.90005 1.03 6.13005 0.8 6.70005 0.8H8.30005C8.87005 0.8 9.10005 1.03 9.10005 1.6V2.4H10.7V1.09C10.7 0.800914 10.5852 0.523668 10.3808 0.319254C10.1764 0.114839 9.89913 0 9.61005 0V0Z" fill="white"/>
<path fill-rule="evenodd" clip-rule="evenodd" d="M0.299933 4C0.29448 3.51767 0.463527 3.04962 0.775926 2.68209C1.08833 2.31457 1.52303 2.07232 1.99993 2H12.9999C13.4768 2.07232 13.9115 2.31457 14.2239 2.68209C14.5363 3.04962 14.7054 3.51767 14.6999 4H0.299933Z" fill="white"/>
<path opacity="0.5" fill-rule="evenodd" clip-rule="evenodd" d="M1.8999 5.59998L2.4999 15C2.52795 15.2556 2.64232 15.4939 2.82413 15.6757C3.00594 15.8576 3.24432 15.9719 3.4999 16H11.4999C11.759 15.9814 12.0027 15.8701 12.1863 15.6864C12.37 15.5028 12.4813 15.259 12.4999 15L13.0999 5.59998H1.8999ZM4.9999 14H3.9999V6.99998H4.9999V14ZM7.9999 14H6.9999V6.99998H7.9999V14ZM10.9999 14H9.9999V6.99998H10.9999V14Z" fill="white"/>
</svg>
