<svg width="16" height="16" viewBox="0 0 16 16" fill="none" xmlns="http://www.w3.org/2000/svg">
<path d="M9.43009 4.44996L10.2901 2.70997C11.0001 0.999967 13.1001 0.0499678 14.4501 0.999968C14.5503 1.07156 14.644 1.15187 14.7301 1.23997C14.8983 1.40746 15.0399 1.59968 15.1501 1.80997C15.8601 3.17997 14.9001 5.04997 13.3201 5.66997L11.5501 6.53997L13.0001 7.99997L11.5901 9.40997L6.59009 4.45997L8.00009 2.99997L9.43009 4.44996Z" fill="white"/>
<path d="M7.31 6.57011L2.31 11.5701C2.41657 12.0307 2.42168 12.509 2.32498 12.9717C2.22828 13.4345 2.03209 13.8707 1.75 14.2501C2.12939 13.968 2.56559 13.7718 3.02836 13.6751C3.49113 13.5784 3.9694 13.5835 4.43 13.6901L9.43 8.69011L10.14 9.40011L4.48 15.0601C4.10484 14.75 3.62259 14.6003 3.13778 14.6433C2.65297 14.6864 2.20465 14.9188 1.89 15.2901L1.18 16.0001L0 14.8201L0.709999 14.1101C1.08133 13.7955 1.31371 13.3471 1.35676 12.8623C1.39981 12.3775 1.25008 11.8953 0.940002 11.5201L6.6 5.86011L7.31 6.57011Z" fill="white"/>
</svg>
