<svg width="16" height="16" viewBox="0 0 16 16" fill="none" xmlns="http://www.w3.org/2000/svg">
<path d="M7.00988 12.88H6.99988C6.38132 12.88 5.87988 13.3814 5.87988 14V14.01C5.87988 14.6286 6.38132 15.13 6.99988 15.13H7.00988C7.62844 15.13 8.12988 14.6286 8.12988 14.01V14C8.12988 13.3814 7.62844 12.88 7.00988 12.88Z" fill="white"/>
<path d="M7.00988 8.88H6.99988C6.38132 8.88 5.87988 9.38145 5.87988 10V10.01C5.87988 10.6286 6.38132 11.13 6.99988 11.13H7.00988C7.62844 11.13 8.12988 10.6286 8.12988 10.01V10C8.12988 9.38145 7.62844 8.88 7.00988 8.88Z" fill="white"/>
<path d="M7.00988 4.88H6.99988C6.38132 4.88 5.87988 5.38145 5.87988 6V6.01C5.87988 6.62856 6.38132 7.13 6.99988 7.13H7.00988C7.62844 7.13 8.12988 6.62856 8.12988 6.01V6C8.12988 5.38145 7.62844 4.88 7.00988 4.88Z" fill="white"/>
<path d="M3.5 2H14.5" stroke="white" stroke-width="2" stroke-miterlimit="10" stroke-linecap="round"/>
<path d="M10.5 6H14.5" stroke="white" stroke-width="2" stroke-miterlimit="10" stroke-linecap="round"/>
<path d="M10.5 10H14.5" stroke="white" stroke-width="2" stroke-miterlimit="10" stroke-linecap="round"/>
<path d="M10.5 14H14.5" stroke="white" stroke-width="2" stroke-miterlimit="10" stroke-linecap="round"/>
<path fill-rule="evenodd" clip-rule="evenodd" d="M4 14L0 10L4 6V14Z" fill="white"/>
</svg>
