<svg width="16" height="16" viewBox="0 0 16 16" fill="none" xmlns="http://www.w3.org/2000/svg">
<path d="M13.74 6.8C13.99 6.59 14.23 6.39 14.46 6.17C14.89 5.48 15.27 4.77 15.5 4.01C14.86 4.48 14.23 4.91 13.58 5.28C13.06 5.78 12.5 6.23 11.91 6.62C10.72 7.4 9.37 7.87 7.99 7.89C6.62 7.87 5.26 7.41 4.07 6.63C3.49 6.22 2.93 5.77 2.42 5.26C1.77 4.89 1.15 4.47 0.5 4C0.72 4.77 1.1 5.48 1.54 6.17C1.76 6.38 1.99 6.57 2.22 6.76L0.65 8.86L2.93 7.31C3.09 7.43 3.24 7.55 3.41 7.66C3.79 7.91 4.19 8.13 4.61 8.32L3.92 11.17L5.5 8.68C6.15 8.9 6.83 9.03 7.52 9.08L8 12L8.49 9.08C9.16 9.03 9.82 8.91 10.45 8.7L12.02 11.16L11.34 8.33C11.78 8.13 12.21 7.91 12.61 7.64C12.76 7.54 12.91 7.42 13.05 7.32L15.29 8.84L13.74 6.8Z" fill="white"/>
</svg>
