<svg width="16" height="16" viewBox="0 0 16 16" fill="none" xmlns="http://www.w3.org/2000/svg">
<path opacity="0.5" d="M13.664 4.80005H11.736L11.2 5.60005H13.664C13.8592 5.60005 14.0464 5.67759 14.1844 5.81562C14.3225 5.95364 14.4 6.14085 14.4 6.33605V12.864C14.4 13.0592 14.3225 13.2465 14.1844 13.3845C14.0464 13.5225 13.8592 13.6 13.664 13.6H1.536C1.3408 13.6 1.1536 13.5225 1.01557 13.3845C0.877543 13.2465 0.8 13.0592 0.8 12.864V6.33605C0.8 6.14085 0.877543 5.95364 1.01557 5.81562C1.1536 5.67759 1.3408 5.60005 1.536 5.60005H4L3.464 4.80005H1.536C1.12863 4.80005 0.73794 4.96188 0.449884 5.24993C0.161828 5.53799 0 5.92868 0 6.33605L0 12.864C0 13.2714 0.161828 13.6621 0.449884 13.9502C0.73794 14.2382 1.12863 14.4 1.536 14.4H13.664C14.0714 14.4 14.4621 14.2382 14.7501 13.9502C15.0382 13.6621 15.2 13.2714 15.2 12.864V6.33605C15.2 5.92868 15.0382 5.53799 14.7501 5.24993C14.4621 4.96188 14.0714 4.80005 13.664 4.80005V4.80005Z" fill="white"/>
<path fill-rule="evenodd" clip-rule="evenodd" d="M10.96 8L7.592 12L4.208 8H6.472C6.472 4.248 5.376 1.104 1.44 0C3.45156 0.137506 5.33237 1.04626 6.69021 2.53675C8.04804 4.02723 8.77805 5.98437 8.728 8H10.96Z" fill="white"/>
</svg>
