<svg xmlns="http://www.w3.org/2000/svg" viewBox="0 0 16 16"><defs><style>.cls-1{fill:#fff;}.cls-2{fill:none;}</style></defs><g id="Layer_2" data-name="Layer 2"><g id="Layer_2-2" data-name="Layer 2"><path class="cls-1" d="M8,2A6,6,0,1,1,2,8,6,6,0,0,1,8,2M8,.5A7.5,7.5,0,1,0,15.5,8,7.5,7.5,0,0,0,8,.5Z"/><path class="cls-1" d="M9,12a1,1,0,0,1-2,0V8A1,1,0,0,1,8,7H8A1,1,0,0,1,9,8Z"/><circle class="cls-1" cx="8" cy="5" r="1.08"/><rect class="cls-2" width="16" height="16" transform="translate(16 16) rotate(-180)"/></g></g></svg>