<svg width="16" height="16" viewBox="0 0 16 16" fill="none" xmlns="http://www.w3.org/2000/svg">
<path fill-rule="evenodd" clip-rule="evenodd" d="M15.0001 3.3001L12.7001 1.0001C12.0001 0.300098 11.0001 0.300098 10.3001 1.0001L7.7001 3.6001C7.1001 4.2001 7.1001 5.3001 7.7001 5.9001L9.5001 4.1001L9.0001 4.6001L10.9001 2.7001C11.3001 2.3001 11.8001 2.3001 12.2001 2.7001L13.3001 3.8001C13.7001 4.2001 13.7001 4.7001 13.3001 5.1001L11.9001 6.5001L11.8001 6.6001L10.1001 8.3001C10.7001 8.9001 11.8001 8.9001 12.5001 8.3001L15.0001 5.7001C15.7001 5.0001 15.7001 4.0001 15.0001 3.3001ZM6.6001 11.8001C6.6001 11.8001 6.6001 11.9001 6.5001 11.9001L5.1001 13.3001C4.7001 13.7001 4.2001 13.7001 3.8001 13.3001L2.7001 12.2001C2.3001 11.8001 2.3001 11.3001 2.7001 10.9001L4.6001 9.0001L5.9001 7.7001C5.2001 7.1001 4.2001 7.1001 3.6001 7.7001L1.0001 10.3001C0.300098 11.0001 0.300098 12.0001 1.0001 12.7001L3.3001 15.0001C4.0001 15.7001 5.0001 15.7001 5.7001 15.0001L8.3001 12.4001C8.9001 11.8001 8.9001 10.7001 8.3001 10.0001L6.6001 11.8001ZM5.3001 10.7001C5.6001 11.0001 6.0001 11.2001 6.5001 10.7001L10.8001 6.4001C11.3001 5.9001 11.1001 5.5001 10.8001 5.2001C10.5001 4.9001 10.1001 4.7001 9.6001 5.2001L5.3001 9.5001C4.8001 10.0001 4.9001 10.4001 5.3001 10.7001Z" fill="white"/>
</svg>
