<svg width="16" height="16" viewBox="0 0 16 16" fill="none" xmlns="http://www.w3.org/2000/svg">
<path d="M12.5 0C11.5726 0.00263855 10.6838 0.37227 10.028 1.02808C9.37221 1.68388 9.00264 2.57255 9 3.5V7H10.31V3.5C10.3073 3.21166 10.3621 2.92572 10.4713 2.65881C10.5804 2.3919 10.7416 2.14933 10.9455 1.94543C11.1494 1.74154 11.3918 1.58043 11.6588 1.47131C11.9257 1.3622 12.2117 1.30739 12.5 1.31006C12.7887 1.30602 13.0753 1.35988 13.3428 1.46851C13.6104 1.57713 13.8534 1.73821 14.0576 1.94238C14.2617 2.14655 14.4229 2.3897 14.5315 2.65723C14.6401 2.92475 14.694 3.21129 14.69 3.5V5H16V3.5C15.9974 2.57255 15.6278 1.68388 14.972 1.02808C14.3162 0.37227 13.4274 0.00263855 12.5 0Z" fill="white"/>
<path d="M12.25 7H2.75C2.55189 7.00259 2.36263 7.08244 2.22253 7.22253C2.08244 7.36263 2.00259 7.55189 2 7.75V13.25C2.00259 13.4481 2.08244 13.6374 2.22253 13.7775C2.36263 13.9176 2.55189 13.9974 2.75 14H12.25C12.4481 13.9974 12.6374 13.9176 12.7775 13.7775C12.9176 13.6374 12.9974 13.4481 13 13.25V7.75C12.9974 7.55189 12.9176 7.36263 12.7775 7.22253C12.6374 7.08244 12.4481 7.00259 12.25 7ZM7.75 12H7.25C7.11739 12 6.99019 11.9473 6.89642 11.8535C6.80266 11.7597 6.75 11.6326 6.75 11.5V9.5C6.75 9.36739 6.80266 9.24025 6.89642 9.14648C6.99019 9.05272 7.11739 9 7.25 9H7.75C7.88261 9 8.00981 9.05272 8.10358 9.14648C8.19734 9.24025 8.25 9.36739 8.25 9.5V11.5C8.25 11.6326 8.19734 11.7597 8.10358 11.8535C8.00981 11.9473 7.88261 12 7.75 12Z" fill="white"/>
</svg>
