<svg width="16" height="16" viewBox="0 0 16 16" fill="none" xmlns="http://www.w3.org/2000/svg">
<path d="M5.31 7.12V4.5C5.30596 4.21129 5.35988 3.92463 5.46851 3.6571C5.57713 3.38958 5.73827 3.14655 5.94244 2.94238C6.14661 2.73821 6.38964 2.57713 6.65717 2.46851C6.92469 2.35988 7.21129 2.3059 7.5 2.30994C7.78834 2.30727 8.07434 2.3622 8.34125 2.47131C8.60816 2.58043 8.85061 2.74154 9.0545 2.94543C9.2584 3.14933 9.41964 3.3919 9.52875 3.65881C9.63786 3.92572 9.69267 4.21166 9.69 4.5V7.12H11V4.5C10.9974 3.57255 10.6278 2.68388 9.97198 2.02808C9.31618 1.37227 8.42745 1.00264 7.5 1C6.57255 1.00264 5.68382 1.37227 5.02802 2.02808C4.37221 2.68388 4.00264 3.57255 4 4.5V7.12H5.31Z" fill="white"/>
<path d="M12.25 7H2.75C2.55189 7.00259 2.36263 7.08244 2.22253 7.22253C2.08244 7.36263 2.00259 7.55189 2 7.75V13.25C2.00259 13.4481 2.08244 13.6374 2.22253 13.7775C2.36263 13.9176 2.55189 13.9974 2.75 14H12.25C12.4481 13.9974 12.6374 13.9176 12.7775 13.7775C12.9176 13.6374 12.9974 13.4481 13 13.25V7.75C12.9974 7.55189 12.9176 7.36263 12.7775 7.22253C12.6374 7.08244 12.4481 7.00259 12.25 7ZM7.75 12H7.25C7.11739 12 6.99019 11.9473 6.89642 11.8535C6.80266 11.7597 6.75 11.6326 6.75 11.5V9.5C6.75 9.36739 6.80266 9.24025 6.89642 9.14648C6.99019 9.05272 7.11739 9 7.25 9H7.75C7.88261 9 8.00981 9.05272 8.10358 9.14648C8.19734 9.24025 8.25 9.36739 8.25 9.5V11.5C8.25 11.6326 8.19734 11.7597 8.10358 11.8535C8.00981 11.9473 7.88261 12 7.75 12Z" fill="white"/>
</svg>
