<svg width="16" height="16" viewBox="0 0 16 16" fill="none" xmlns="http://www.w3.org/2000/svg">
<path d="M15.25 5.75L12.5 8.5L9.75 5.75" stroke="white" stroke-width="1.5" stroke-miterlimit="10" stroke-linecap="round"/>
<path d="M12.5001 8C12.5001 5.94 12.5001 6.41004 12.5001 4.92004C12.3646 4.09468 11.9686 3.33425 11.3701 2.75C10.8888 2.26684 10.3169 1.88342 9.6871 1.62183C9.05731 1.36023 8.38206 1.22559 7.7001 1.22559C7.01814 1.22559 6.3429 1.36023 5.7131 1.62183C5.08331 1.88342 4.51136 2.26684 4.03009 2.75C3.51938 3.30094 3.12368 3.94822 2.86612 4.65393C2.60856 5.35964 2.49432 6.1096 2.53009 6.85999V8.05005" stroke="white" stroke-width="1.5" stroke-miterlimit="10" stroke-linecap="round"/>
<path opacity="0.5" d="M2 15L14 15C14.5523 15 15 14.5523 15 14V12C15 11.4477 14.5523 11 14 11L2 11C1.44771 11 1 11.4477 1 12V14C1 14.5523 1.44771 15 2 15Z" fill="white"/>
</svg>
