<svg width="16" height="16" viewBox="0 0 16 16" fill="none" xmlns="http://www.w3.org/2000/svg">
<path d="M15.25 7.75L12.5 10.5L9.75 7.75" stroke="white" stroke-width="1.5" stroke-miterlimit="10" stroke-linecap="round"/>
<path d="M6.53003 1.57002C7.38192 1.3503 8.27636 1.35648 9.12512 1.58796C9.97389 1.81944 10.7476 2.26829 11.37 2.89009C11.9531 3.45752 12.3387 4.19711 12.47 5.00007C12.47 6.45007 12.47 8.00007 12.47 10.0001" stroke="white" stroke-width="1.5" stroke-miterlimit="10" stroke-linecap="round"/>
<path opacity="0.5" d="M1 15H7C7.55228 15 8 14.5523 8 14L8 6C8 5.44771 7.55228 5 7 5H1C0.447715 5 0 5.44771 0 6L0 14C0 14.5523 0.447715 15 1 15Z" fill="white"/>
</svg>
