<svg xmlns="http://www.w3.org/2000/svg" viewBox="0 0 16 16"><defs><style>.cls-1{fill:#fff;}.cls-2{fill:none;}</style></defs><g id="Layer_2" data-name="Layer 2"><g id="Layer_6" data-name="Layer 6"><path class="cls-1" d="M12,1H1V15H8.51a5.26,5.26,0,0,1-.59-1H3V10H7.93A5,5,0,0,1,9.24,8.21L11,9s0,0,0-1H2V2H3V7h9V2h1V7a5.31,5.31,0,0,1,1.21.26C14.13,7.56,14,9,14,9l1-1V3L13,1ZM11,6H9V2h2Z"/><polygon class="cls-1" points="15.87 13.56 15.38 14.39 12.9 12.75 12.96 15.5 12.01 15.5 12.06 12.75 9.6 14.4 9.1 13.56 11.78 12 9.1 10.44 9.6 9.6 12.06 11.26 12.01 8.5 12.96 8.5 12.9 11.26 15.38 9.61 15.87 10.44 13.19 11.99 15.87 13.56"/><rect class="cls-2" width="16" height="16"/></g></g></svg>