<svg width="16" height="16" viewBox="0 0 16 16" fill="none" xmlns="http://www.w3.org/2000/svg">
<path d="M0 1V5H16V1H0ZM2 4V2H9V4H2ZM13 3.4V2.6C13 2.3 13.3 2 13.6 2H14.4C14.7 2 15 2.3 15 2.6V3.4C15 3.7 14.7 4 14.4 4H13.6C13.3 4 13 3.7 13 3.4Z" fill="white"/>
<path d="M0 6V10H16V6H0ZM2 9V7H9V9H2ZM13 8.4V7.6C13 7.3 13.3 7 13.6 7H14.4C14.7 7 15 7.3 15 7.6V8.4C15 8.7 14.7 9 14.4 9H13.6C13.3 9 13 8.7 13 8.4Z" fill="white"/>
<path d="M0 11V15H16V11H0ZM2 14V12H9V14H2ZM13 13.4V12.6C13 12.3 13.3 12 13.6 12H14.4C14.7 12 15 12.3 15 12.6V13.4C15 13.7 14.7 14 14.4 14H13.6C13.3 14 13 13.7 13 13.4Z" fill="white"/>
</svg>
