<svg width="16" height="16" viewBox="0 0 16 16" fill="none" xmlns="http://www.w3.org/2000/svg">
<path fill-rule="evenodd" clip-rule="evenodd" d="M15.0001 3.30005L12.7001 1.00005C12.1001 0.400049 11.0001 0.400049 10.3001 1.00005L7.7001 3.60005C7.1001 4.20005 7.1001 5.30005 7.7001 5.90005L9.5001 4.10005L9.0001 4.60005L10.9001 2.70005C11.3001 2.30005 11.8001 2.30005 12.2001 2.70005L13.3001 3.80005C13.7001 4.20005 13.7001 4.70005 13.3001 5.10005L11.9001 6.50005L11.8001 6.60005L10.1001 8.30005C10.7001 8.90005 11.8001 8.90005 12.5001 8.30005L15.1001 5.70005C15.7001 5.00005 15.7001 4.00005 15.0001 3.30005ZM6.6001 11.8C6.6001 11.8 6.6001 11.9001 6.5001 11.9001L5.1001 13.3C4.7001 13.7 4.2001 13.7 3.8001 13.3L2.7001 12.2C2.3001 11.8 2.3001 11.3 2.7001 10.9001L4.6001 9.00005L5.9001 7.70005C5.2001 7.10005 4.2001 7.10005 3.6001 7.70005L1.0001 10.3C0.300098 11 0.300098 12 1.0001 12.7L3.3001 15C4.0001 15.7 5.0001 15.7 5.7001 15L8.3001 12.4001C8.9001 11.8 8.9001 10.7 8.3001 10L6.6001 11.8Z" fill="white"/>
</svg>
