<svg width="32" height="32" viewBox="0 0 32 32" fill="none" xmlns="http://www.w3.org/2000/svg">
<path fill-rule="evenodd" clip-rule="evenodd" d="M25.671 18.2918C25.393 19.5605 24.2079 23.0368 20.323 24.8961L18.6848 23.076L15.9336 25.8174C14.3419 25.8253 10.7716 25.2111 8.27071 21.8064C8.27071 21.8064 8.79305 21.9369 9.16303 21.9438C9.59634 21.9516 10.0672 21.7936 10.0672 21.0705V13.9374C10.1137 13.3447 9.53896 12.5441 8.57738 12.7619C7.3497 13.0406 6.39999 16.0783 6.39999 16.0783C6.40395 12.4185 8.31523 9.91946 9.77045 8.6773C11.5877 7.12508 13.3566 6.61193 14.7129 6.39999C13.3734 7.15746 12.6196 8.39374 12.6196 9.42888C12.6196 11.0929 13.6326 10.8957 13.9323 10.6504V20.2767C13.9323 20.2767 13.9917 20.4318 14.1322 20.6162C14.334 20.8821 14.704 21.2069 15.3035 21.2069C16.3184 21.2069 17.6342 20.0589 17.6342 20.0589V12.2645C17.6342 11.4717 17.0307 10.5141 16.4283 10.1854C16.4283 10.1854 17.5451 9.98618 18.4088 10.6436C18.5958 10.4189 18.7709 10.2305 18.9242 10.0804C20.9324 8.12294 22.8269 7.56857 24.4048 7.28698H24.4067C24.4067 7.28698 21.5349 9.52307 21.5349 12.5225C21.5349 14.7537 21.5932 20.1953 21.5932 20.1953C22.6577 21.2167 24.2405 19.744 25.671 18.2918Z" fill="white"/>
<circle cx="16" cy="16" r="15" stroke="white" stroke-width="2"/>
</svg>
