<svg width="100" height="100" viewBox="0 0 100 100" fill="none" xmlns="http://www.w3.org/2000/svg">
<path fill-rule="evenodd" clip-rule="evenodd" d="M80.222 57.162C79.3533 61.1265 75.6497 71.99 63.5095 77.8003L58.39 72.1126L49.7926 80.6795C44.8184 80.704 33.6612 78.7846 25.846 68.145C25.846 68.145 27.4783 68.5528 28.6345 68.5742C29.9886 68.5988 31.4601 68.1051 31.4601 65.8454V43.5543C31.6054 41.7023 29.8093 39.2003 26.8043 39.881C22.9678 40.7518 20 50.2447 20 50.2447C20.0124 38.8079 25.9851 30.9983 30.5327 27.1166C36.2117 22.2659 41.7393 20.6623 45.9777 20C41.7918 22.3671 39.4361 26.2305 39.4361 29.4653C39.4361 34.6655 42.6018 34.0492 43.5385 33.2826V63.3648C43.5385 63.3648 43.724 63.8493 44.163 64.4257C44.7937 65.2567 45.9499 66.2716 47.8233 66.2716C50.9952 66.2716 55.1068 62.6841 55.1068 62.6841V38.3265C55.1068 35.849 53.221 32.8564 51.3383 31.8293C51.3383 31.8293 54.8286 31.2068 57.5275 33.2612C58.1117 32.559 58.6589 31.9703 59.1381 31.5012C65.4138 25.3842 71.334 23.6518 76.2649 22.7718H76.2711C76.2711 22.7718 67.2965 29.7596 67.2965 39.1329C67.2965 46.1054 67.4789 63.1103 67.4789 63.1103C70.8054 66.3022 75.7517 61.6999 80.222 57.162Z" fill="white"/>
<circle cx="50" cy="50" r="49" stroke="white" stroke-width="2"/>
</svg>
