<svg width="25" height="25" viewBox="0 0 25 25" fill="none" xmlns="http://www.w3.org/2000/svg">
<path fill-rule="evenodd" clip-rule="evenodd" d="M24.6441 15.5316C24.2979 17.0997 22.822 21.3964 17.9838 23.6945L15.9435 21.4449L12.5172 24.8332C10.5349 24.8429 6.08849 24.0838 2.97391 19.8756C2.97391 19.8756 3.62442 20.0369 4.0852 20.0454C4.62483 20.0551 5.21128 19.8598 5.21128 18.9661V10.1495C5.26919 9.41703 4.55337 8.42744 3.35584 8.69667C1.82689 9.04109 0.644135 12.7957 0.644135 12.7957C0.649063 8.27222 3.02935 5.18339 4.84167 3.64808C7.10492 1.72954 9.30779 1.09529 10.9969 0.833336C9.32873 1.76956 8.38992 3.2976 8.38992 4.57703C8.38992 6.63382 9.65153 6.39006 10.0248 6.08688V17.985C10.0248 17.985 10.0988 18.1766 10.2737 18.4046C10.525 18.7332 10.9858 19.1346 11.7324 19.1346C12.9965 19.1346 14.6351 17.7157 14.6351 17.7157V8.08182C14.6351 7.10193 13.8836 5.91831 13.1333 5.51204C13.1333 5.51204 14.5242 5.26586 15.5998 6.07839C15.8326 5.80067 16.0507 5.56783 16.2417 5.38228C18.7427 2.96289 21.102 2.2777 23.0671 1.92964H23.0696C23.0696 1.92964 19.493 4.69345 19.493 8.40077C19.493 11.1585 19.5657 17.8843 19.5657 17.8843C20.8914 19.1468 22.8626 17.3265 24.6441 15.5316Z" fill="white"/>
</svg>
