<svg width="16" height="16" viewBox="0 0 16 16" fill="none" xmlns="http://www.w3.org/2000/svg">
<path fill-rule="evenodd" clip-rule="evenodd" d="M8 1C11.9 1 15 4.1 15 8C15 11.9 11.9 15 8 15C4.1 15 1 11.9 1 8C1 4.1 4.1 1 8 1Z" stroke="white" stroke-miterlimit="10"/>
<path fill-rule="evenodd" clip-rule="evenodd" d="M6.1001 1.30001C6.4001 1.20001 6.6001 1.20001 6.9001 1.10001C6.6001 1.10001 6.3001 1.20001 6.1001 1.30001Z" fill="white"/>
<path fill-rule="evenodd" clip-rule="evenodd" d="M7.1001 1.1C7.4001 1 7.7001 1 8.0001 1C7.7001 1 7.4001 1 7.1001 1.1Z" fill="white"/>
<path fill-rule="evenodd" clip-rule="evenodd" d="M4.8 10.4C5 8.89999 6 8.99999 6 8.99999C6 8.99999 4 7.89999 3.7 7.09999C3.4 6.49999 2.2 5.99999 1.8 4.89999C2.7 3.19999 4.2 1.89999 6.1 1.29999C3.1 2.09999 1 4.79999 1 7.99999C1 11.9 4.1 15 8 15C7.7 15 7.4 14.9 7.2 14.9C5.9 13.6 4.6 11.4 4.8 10.4Z" fill="white"/>
<path fill-rule="evenodd" clip-rule="evenodd" d="M8 1C8.3 1 8.6 1 8.9 1.1C8.6 1 8.3 1 8 1Z" fill="white"/>
<path fill-rule="evenodd" clip-rule="evenodd" d="M8.99989 1.10001C9.89989 1.20001 10.6999 1.50001 11.3999 1.90001C10.9999 2.70001 10.2999 3.80001 9.49989 4.50001C8.59989 5.30001 10.4999 6.40001 9.89989 7.20001C9.39989 7.80001 8.99989 7.00001 8.59989 6.20001C8.29989 5.60001 7.39989 5.80001 6.69989 5.80001C4.49989 5.90001 5.29989 9.20001 7.09989 8.70001C8.29989 8.40001 8.99989 8.30001 10.0999 9.10001C10.7999 9.70001 10.8999 10.9 10.0999 12C9.49989 12.8 9.49989 14 9.39989 14.8C8.89989 15 8.49989 15 7.99989 15C11.8999 15 14.9999 11.9 14.9999 8.00001C14.9999 4.50001 12.3999 1.50001 8.99989 1.10001Z" fill="white"/>
</svg>
