<svg width="16" height="16" viewBox="0 0 16 16" fill="none" xmlns="http://www.w3.org/2000/svg">
<path opacity="0.5" fill-rule="evenodd" clip-rule="evenodd" d="M7.49998 11.6C7.79998 11.6 8.09998 11.6 8.39998 11.5C8.09998 14 7.49998 16 7.49998 16C7.49998 16 6.89998 14 6.59998 11.5C6.89998 11.6 7.19998 11.6 7.49998 11.6Z" fill="white"/>
<path fill-rule="evenodd" clip-rule="evenodd" d="M9.70002 6.3L9.20002 3.1C9.80002 2.8 10.2 2.4 10.2 2C10.2 1.2 9.00002 0.5 7.60002 0.5C6.10002 0.5 5.00002 1.2 5.00002 2C5.00002 2.5 5.40002 2.9 6.00002 3.1L5.50002 6.3C4.30002 6.7 3.40002 7.5 3.40002 8.3C3.40002 9.6 5.30002 10.7 7.60002 10.7C9.90002 10.7 11.8 9.6 11.8 8.3C11.7 7.5 10.9 6.8 9.70002 6.3Z" fill="white" stroke="white" stroke-miterlimit="10"/>
</svg>
